<svg width="1920" height="1080" viewBox="0 0 1920 1080" fill="none" xmlns="http://www.w3.org/2000/svg">
<g filter="url(#filter0_d_13_3)">
<rect x="4.94244" width="1920" height="1080" fill="#362C73"/>
</g>
<mask id="mask0_13_3" style="mask-type:alpha" maskUnits="userSpaceOnUse" x="1116" y="0" width="809" height="1080">
<path d="M1116 1079.5V0H1924.5V1079.5H1116Z" fill="#A53737"/>
</mask>
<g mask="url(#mask0_13_3)">
<ellipse cx="1925" cy="539.956" rx="645.212" ry="535.834" fill="#F059AB"/>
<ellipse cx="1925" cy="542.429" rx="297.79" ry="247.308" fill="#362C73"/>
<ellipse cx="1925" cy="542.429" rx="248.158" ry="206.09" fill="#66E29F"/>
<path d="M2513.08 542.429C2513.08 810.212 2251.15 1029.55 1925 1029.55C1598.84 1029.55 1336.92 810.212 1336.92 542.429C1336.92 274.646 1598.84 55.3129 1925 55.3129C2251.15 55.3129 2513.08 274.646 2513.08 542.429Z" stroke="black" stroke-width="15"/>
<path d="M2413.81 542.429C2413.81 764.684 2196.33 947.109 1925 947.109C1653.67 947.109 1436.18 764.684 1436.18 542.429C1436.18 320.174 1653.67 137.749 1925 137.749C2196.33 137.749 2413.81 320.174 2413.81 542.429Z" stroke="black" stroke-width="15"/>
<path d="M2314.55 542.429C2314.55 719.156 2141.51 864.673 1925 864.673C1708.49 864.673 1535.44 719.156 1535.44 542.429C1535.44 365.702 1708.49 220.185 1925 220.185C2141.51 220.185 2314.55 365.702 2314.55 542.429Z" stroke="black" stroke-width="15"/>
</g>
<g filter="url(#filter1_d_13_3)">
<rect x="335" y="503" width="476" height="195" fill="white"/>
</g>
<g opacity="0.5">
<path d="M351.078 589L360.714 576.636C358.162 576.167 356.123 575.155 354.598 573.6C353.073 572.016 352.31 569.977 352.31 567.484C352.31 564.873 353.087 562.82 354.642 561.324C356.725 559.241 359.717 558.2 363.618 558.2H376.774V589H373.298V577.208H364.454L355.302 589H351.078ZM363.838 574.26H373.298V561.324H363.838C361.315 561.324 359.335 561.911 357.898 563.084C356.49 564.228 355.786 565.783 355.786 567.748C355.786 569.713 356.534 571.297 358.03 572.5C359.526 573.673 361.462 574.26 363.838 574.26ZM411.024 589.484C408.707 589.484 406.712 588.853 405.04 587.592C403.368 586.331 402.532 584.571 402.532 582.312C402.532 579.936 403.412 578.103 405.172 576.812C406.932 575.521 409.294 574.876 412.256 574.876C414.603 574.876 416.92 575.199 419.208 575.844V575.14C419.208 573.145 418.622 571.62 417.448 570.564C416.275 569.508 414.618 568.98 412.476 568.98C410.247 568.98 407.944 569.523 405.568 570.608L404.556 567.836C407.372 566.545 410.13 565.9 412.828 565.9C416.055 565.9 418.504 566.736 420.176 568.408C421.76 569.992 422.552 572.221 422.552 575.096V589H419.208V585.612C417.184 588.193 414.456 589.484 411.024 589.484ZM411.684 586.756C413.796 586.756 415.586 586.184 417.052 585.04C418.519 583.896 419.252 582.429 419.252 580.64V578.528C417.023 577.883 414.808 577.56 412.608 577.56C410.526 577.56 408.898 577.985 407.724 578.836C406.551 579.657 405.964 580.787 405.964 582.224C405.964 583.603 406.507 584.703 407.592 585.524C408.707 586.345 410.071 586.756 411.684 586.756ZM432.809 589V566.252H443.809C446.067 566.252 447.871 566.765 449.221 567.792C450.57 568.819 451.245 570.197 451.245 571.928C451.245 574.363 449.983 576.108 447.461 577.164C450.805 578.073 452.477 579.951 452.477 582.796C452.477 584.703 451.729 586.213 450.233 587.328C448.737 588.443 446.727 589 444.205 589H432.809ZM436.197 586.096H443.765C445.378 586.096 446.654 585.759 447.593 585.084C448.531 584.409 449.001 583.471 449.001 582.268C449.001 581.153 448.502 580.288 447.505 579.672C446.537 579.056 445.143 578.748 443.325 578.748H436.197V586.096ZM436.197 576.02H443.193C444.601 576.02 445.715 575.712 446.537 575.096C447.387 574.451 447.813 573.541 447.813 572.368C447.813 571.4 447.417 570.623 446.625 570.036C445.833 569.449 444.718 569.156 443.281 569.156H436.197V576.02ZM467.17 589V569.244H459.03V566.252H478.742V569.244H470.602V589H467.17ZM505.626 586.052C503.338 588.369 500.507 589.528 497.134 589.528C493.761 589.528 490.945 588.369 488.686 586.052C486.457 583.735 485.342 580.933 485.342 577.648C485.342 574.392 486.471 571.605 488.73 569.288C491.018 566.941 493.849 565.768 497.222 565.768C500.595 565.768 503.411 566.927 505.67 569.244C507.929 571.561 509.058 574.363 509.058 577.648C509.058 580.904 507.914 583.705 505.626 586.052ZM497.222 586.492C499.657 586.492 501.651 585.641 503.206 583.94C504.79 582.239 505.582 580.141 505.582 577.648C505.582 575.184 504.761 573.087 503.118 571.356C501.505 569.625 499.51 568.76 497.134 568.76C494.699 568.76 492.705 569.625 491.15 571.356C489.595 573.057 488.818 575.155 488.818 577.648C488.818 580.112 489.625 582.209 491.238 583.94C492.851 585.641 494.846 586.492 497.222 586.492ZM518.275 596.04V566.252H521.663V570.828C523.951 567.455 526.855 565.768 530.375 565.768C533.279 565.768 535.817 566.853 537.987 569.024C540.158 571.165 541.243 574.04 541.243 577.648C541.243 581.197 540.158 584.057 537.987 586.228C535.817 588.399 533.279 589.484 530.375 589.484C526.797 589.484 523.893 587.871 521.663 584.644V596.04H518.275ZM529.759 586.448C532.047 586.448 533.954 585.656 535.479 584.072C537.005 582.459 537.767 580.303 537.767 577.604C537.767 574.993 536.99 572.881 535.435 571.268C533.881 569.625 531.989 568.804 529.759 568.804C527.559 568.804 525.638 569.64 523.995 571.312C522.353 572.984 521.531 575.096 521.531 577.648C521.531 580.2 522.353 582.312 523.995 583.984C525.638 585.627 527.559 586.448 529.759 586.448ZM577.053 589V576.812L564.249 558.2H568.473L578.857 573.6L589.329 558.2H593.377L580.573 576.768V589H577.053ZM620.298 586.052C618.01 588.369 615.179 589.528 611.806 589.528C608.432 589.528 605.616 588.369 603.358 586.052C601.128 583.735 600.014 580.933 600.014 577.648C600.014 574.392 601.143 571.605 603.402 569.288C605.69 566.941 608.52 565.768 611.894 565.768C615.267 565.768 618.083 566.927 620.342 569.244C622.6 571.561 623.73 574.363 623.73 577.648C623.73 580.904 622.586 583.705 620.298 586.052ZM611.894 586.492C614.328 586.492 616.323 585.641 617.878 583.94C619.462 582.239 620.254 580.141 620.254 577.648C620.254 575.184 619.432 573.087 617.79 571.356C616.176 569.625 614.182 568.76 611.806 568.76C609.371 568.76 607.376 569.625 605.822 571.356C604.267 573.057 603.49 575.155 603.49 577.648C603.49 580.112 604.296 582.209 605.91 583.94C607.523 585.641 609.518 586.492 611.894 586.492ZM641.307 589.484C638.608 589.484 636.482 588.663 634.927 587.02C633.372 585.348 632.595 583.133 632.595 580.376V566.252H635.983V579.54C635.983 581.681 636.526 583.368 637.611 584.6C638.726 585.803 640.28 586.404 642.275 586.404C644.24 586.404 645.868 585.744 647.159 584.424C648.45 583.104 649.095 581.388 649.095 579.276V566.252H652.439V589H649.095V585.04C647.247 588.003 644.651 589.484 641.307 589.484ZM671.852 589V561.412H661.512V558.2H685.712V561.412H675.372V589H671.852ZM703.111 589.484C700.413 589.484 698.286 588.663 696.731 587.02C695.177 585.348 694.399 583.133 694.399 580.376V566.252H697.787V579.54C697.787 581.681 698.33 583.368 699.415 584.6C700.53 585.803 702.085 586.404 704.079 586.404C706.045 586.404 707.673 585.744 708.963 584.424C710.254 583.104 710.899 581.388 710.899 579.276V566.252H714.243V589H710.899V585.04C709.051 588.003 706.455 589.484 703.111 589.484ZM737.045 589.484C733.466 589.484 730.562 587.871 728.333 584.644V589H724.945V556.88H728.333V570.828C730.621 567.455 733.525 565.768 737.045 565.768C739.949 565.768 742.486 566.853 744.657 569.024C746.827 571.165 747.913 574.04 747.913 577.648C747.913 581.197 746.827 584.057 744.657 586.228C742.486 588.399 739.949 589.484 737.045 589.484ZM736.429 586.448C738.717 586.448 740.623 585.656 742.149 584.072C743.674 582.459 744.437 580.303 744.437 577.604C744.437 574.993 743.659 572.881 742.105 571.268C740.55 569.625 738.658 568.804 736.429 568.804C734.229 568.804 732.307 569.64 730.665 571.312C729.022 572.984 728.201 575.096 728.201 577.648C728.201 580.2 729.022 582.312 730.665 583.984C732.307 585.627 734.229 586.448 736.429 586.448ZM759.267 579.012C759.502 581.329 760.367 583.177 761.863 584.556C763.389 585.905 765.193 586.58 767.275 586.58C770.003 586.58 772.394 585.509 774.447 583.368L776.559 585.26C774.007 588.105 770.883 589.528 767.187 589.528C763.99 589.528 761.291 588.428 759.091 586.228C756.921 583.999 755.835 581.139 755.835 577.648C755.835 574.333 756.877 571.532 758.959 569.244C761.042 566.927 763.638 565.768 766.747 565.768C770.003 565.768 772.585 566.912 774.491 569.2C776.398 571.488 777.351 574.363 777.351 577.824C777.351 578.264 777.337 578.66 777.307 579.012H759.267ZM759.267 576.284H773.919C773.714 574.084 772.981 572.265 771.719 570.828C770.487 569.361 768.801 568.628 766.659 568.628C764.723 568.628 763.066 569.347 761.687 570.784C760.309 572.221 759.502 574.055 759.267 576.284ZM490.703 631V608.252H494.091V621.364L506.543 608.252H510.723L501.219 618.108L510.987 631H506.983L498.887 620.572L494.091 625.5V631H490.703ZM525.524 631.484C523.207 631.484 521.212 630.853 519.54 629.592C517.868 628.331 517.032 626.571 517.032 624.312C517.032 621.936 517.912 620.103 519.672 618.812C521.432 617.521 523.793 616.876 526.756 616.876C529.103 616.876 531.42 617.199 533.708 617.844V617.14C533.708 615.145 533.121 613.62 531.948 612.564C530.775 611.508 529.117 610.98 526.976 610.98C524.747 610.98 522.444 611.523 520.068 612.608L519.056 609.836C521.872 608.545 524.629 607.9 527.328 607.9C530.555 607.9 533.004 608.736 534.676 610.408C536.26 611.992 537.052 614.221 537.052 617.096V631H533.708V627.612C531.684 630.193 528.956 631.484 525.524 631.484ZM526.184 628.756C528.296 628.756 530.085 628.184 531.552 627.04C533.019 625.896 533.752 624.429 533.752 622.64V620.528C531.523 619.883 529.308 619.56 527.108 619.56C525.025 619.56 523.397 619.985 522.224 620.836C521.051 621.657 520.464 622.787 520.464 624.224C520.464 625.603 521.007 626.703 522.092 627.524C523.207 628.345 524.571 628.756 526.184 628.756ZM547.308 631V608.252H550.696V618.064H563.808V608.252H567.196V631H563.808V621.056H550.696V631H547.308ZM584.621 631.484C582.304 631.484 580.309 630.853 578.637 629.592C576.965 628.331 576.129 626.571 576.129 624.312C576.129 621.936 577.009 620.103 578.769 618.812C580.529 617.521 582.891 616.876 585.853 616.876C588.2 616.876 590.517 617.199 592.805 617.844V617.14C592.805 615.145 592.219 613.62 591.045 612.564C589.872 611.508 588.215 610.98 586.073 610.98C583.844 610.98 581.541 611.523 579.165 612.608L578.153 609.836C580.969 608.545 583.727 607.9 586.425 607.9C589.652 607.9 592.101 608.736 593.773 610.408C595.357 611.992 596.149 614.221 596.149 617.096V631H592.805V627.612C590.781 630.193 588.053 631.484 584.621 631.484ZM585.281 628.756C587.393 628.756 589.183 628.184 590.649 627.04C592.116 625.896 592.849 624.429 592.849 622.64V620.528C590.62 619.883 588.405 619.56 586.205 619.56C584.123 619.56 582.495 619.985 581.321 620.836C580.148 621.657 579.561 622.787 579.561 624.224C579.561 625.603 580.104 626.703 581.189 627.524C582.304 628.345 583.668 628.756 585.281 628.756ZM605.306 631.352C604.426 631.352 603.517 631.235 602.578 631L602.974 628.096C603.649 628.301 604.191 628.404 604.602 628.404C605.247 628.404 605.775 628.331 606.186 628.184C606.597 628.008 607.037 627.583 607.506 626.908C608.005 626.204 608.386 625.221 608.65 623.96C608.914 622.699 609.134 620.909 609.31 618.592C609.515 616.275 609.618 613.459 609.618 610.144V608.252H625.722V631H622.334V611.244H612.83V611.772C612.83 615.233 612.698 618.181 612.434 620.616C612.17 623.051 611.833 624.957 611.422 626.336C611.041 627.715 610.498 628.785 609.794 629.548C609.09 630.311 608.401 630.795 607.726 631C607.081 631.235 606.274 631.352 605.306 631.352ZM643.16 631.484C640.843 631.484 638.848 630.853 637.176 629.592C635.504 628.331 634.668 626.571 634.668 624.312C634.668 621.936 635.548 620.103 637.308 618.812C639.068 617.521 641.43 616.876 644.392 616.876C646.739 616.876 649.056 617.199 651.344 617.844V617.14C651.344 615.145 650.758 613.62 649.584 612.564C648.411 611.508 646.754 610.98 644.612 610.98C642.383 610.98 640.08 611.523 637.704 612.608L636.692 609.836C639.508 608.545 642.266 607.9 644.964 607.9C648.191 607.9 650.64 608.736 652.312 610.408C653.896 611.992 654.688 614.221 654.688 617.096V631H651.344V627.612C649.32 630.193 646.592 631.484 643.16 631.484ZM643.82 628.756C645.932 628.756 647.722 628.184 649.188 627.04C650.655 625.896 651.388 624.429 651.388 622.64V620.528C649.159 619.883 646.944 619.56 644.744 619.56C642.662 619.56 641.034 619.985 639.86 620.836C638.687 621.657 638.1 622.787 638.1 624.224C638.1 625.603 638.643 626.703 639.728 627.524C640.843 628.345 642.207 628.756 643.82 628.756Z" fill="black"/>
<path d="M351.078 589L360.714 576.636C358.162 576.167 356.123 575.155 354.598 573.6C353.073 572.016 352.31 569.977 352.31 567.484C352.31 564.873 353.087 562.82 354.642 561.324C356.725 559.241 359.717 558.2 363.618 558.2H376.774V589H373.298V577.208H364.454L355.302 589H351.078ZM363.838 574.26H373.298V561.324H363.838C361.315 561.324 359.335 561.911 357.898 563.084C356.49 564.228 355.786 565.783 355.786 567.748C355.786 569.713 356.534 571.297 358.03 572.5C359.526 573.673 361.462 574.26 363.838 574.26ZM411.024 589.484C408.707 589.484 406.712 588.853 405.04 587.592C403.368 586.331 402.532 584.571 402.532 582.312C402.532 579.936 403.412 578.103 405.172 576.812C406.932 575.521 409.294 574.876 412.256 574.876C414.603 574.876 416.92 575.199 419.208 575.844V575.14C419.208 573.145 418.622 571.62 417.448 570.564C416.275 569.508 414.618 568.98 412.476 568.98C410.247 568.98 407.944 569.523 405.568 570.608L404.556 567.836C407.372 566.545 410.13 565.9 412.828 565.9C416.055 565.9 418.504 566.736 420.176 568.408C421.76 569.992 422.552 572.221 422.552 575.096V589H419.208V585.612C417.184 588.193 414.456 589.484 411.024 589.484ZM411.684 586.756C413.796 586.756 415.586 586.184 417.052 585.04C418.519 583.896 419.252 582.429 419.252 580.64V578.528C417.023 577.883 414.808 577.56 412.608 577.56C410.526 577.56 408.898 577.985 407.724 578.836C406.551 579.657 405.964 580.787 405.964 582.224C405.964 583.603 406.507 584.703 407.592 585.524C408.707 586.345 410.071 586.756 411.684 586.756ZM432.809 589V566.252H443.809C446.067 566.252 447.871 566.765 449.221 567.792C450.57 568.819 451.245 570.197 451.245 571.928C451.245 574.363 449.983 576.108 447.461 577.164C450.805 578.073 452.477 579.951 452.477 582.796C452.477 584.703 451.729 586.213 450.233 587.328C448.737 588.443 446.727 589 444.205 589H432.809ZM436.197 586.096H443.765C445.378 586.096 446.654 585.759 447.593 585.084C448.531 584.409 449.001 583.471 449.001 582.268C449.001 581.153 448.502 580.288 447.505 579.672C446.537 579.056 445.143 578.748 443.325 578.748H436.197V586.096ZM436.197 576.02H443.193C444.601 576.02 445.715 575.712 446.537 575.096C447.387 574.451 447.813 573.541 447.813 572.368C447.813 571.4 447.417 570.623 446.625 570.036C445.833 569.449 444.718 569.156 443.281 569.156H436.197V576.02ZM467.17 589V569.244H459.03V566.252H478.742V569.244H470.602V589H467.17ZM505.626 586.052C503.338 588.369 500.507 589.528 497.134 589.528C493.761 589.528 490.945 588.369 488.686 586.052C486.457 583.735 485.342 580.933 485.342 577.648C485.342 574.392 486.471 571.605 488.73 569.288C491.018 566.941 493.849 565.768 497.222 565.768C500.595 565.768 503.411 566.927 505.67 569.244C507.929 571.561 509.058 574.363 509.058 577.648C509.058 580.904 507.914 583.705 505.626 586.052ZM497.222 586.492C499.657 586.492 501.651 585.641 503.206 583.94C504.79 582.239 505.582 580.141 505.582 577.648C505.582 575.184 504.761 573.087 503.118 571.356C501.505 569.625 499.51 568.76 497.134 568.76C494.699 568.76 492.705 569.625 491.15 571.356C489.595 573.057 488.818 575.155 488.818 577.648C488.818 580.112 489.625 582.209 491.238 583.94C492.851 585.641 494.846 586.492 497.222 586.492ZM518.275 596.04V566.252H521.663V570.828C523.951 567.455 526.855 565.768 530.375 565.768C533.279 565.768 535.817 566.853 537.987 569.024C540.158 571.165 541.243 574.04 541.243 577.648C541.243 581.197 540.158 584.057 537.987 586.228C535.817 588.399 533.279 589.484 530.375 589.484C526.797 589.484 523.893 587.871 521.663 584.644V596.04H518.275ZM529.759 586.448C532.047 586.448 533.954 585.656 535.479 584.072C537.005 582.459 537.767 580.303 537.767 577.604C537.767 574.993 536.99 572.881 535.435 571.268C533.881 569.625 531.989 568.804 529.759 568.804C527.559 568.804 525.638 569.64 523.995 571.312C522.353 572.984 521.531 575.096 521.531 577.648C521.531 580.2 522.353 582.312 523.995 583.984C525.638 585.627 527.559 586.448 529.759 586.448ZM577.053 589V576.812L564.249 558.2H568.473L578.857 573.6L589.329 558.2H593.377L580.573 576.768V589H577.053ZM620.298 586.052C618.01 588.369 615.179 589.528 611.806 589.528C608.432 589.528 605.616 588.369 603.358 586.052C601.128 583.735 600.014 580.933 600.014 577.648C600.014 574.392 601.143 571.605 603.402 569.288C605.69 566.941 608.52 565.768 611.894 565.768C615.267 565.768 618.083 566.927 620.342 569.244C622.6 571.561 623.73 574.363 623.73 577.648C623.73 580.904 622.586 583.705 620.298 586.052ZM611.894 586.492C614.328 586.492 616.323 585.641 617.878 583.94C619.462 582.239 620.254 580.141 620.254 577.648C620.254 575.184 619.432 573.087 617.79 571.356C616.176 569.625 614.182 568.76 611.806 568.76C609.371 568.76 607.376 569.625 605.822 571.356C604.267 573.057 603.49 575.155 603.49 577.648C603.49 580.112 604.296 582.209 605.91 583.94C607.523 585.641 609.518 586.492 611.894 586.492ZM641.307 589.484C638.608 589.484 636.482 588.663 634.927 587.02C633.372 585.348 632.595 583.133 632.595 580.376V566.252H635.983V579.54C635.983 581.681 636.526 583.368 637.611 584.6C638.726 585.803 640.28 586.404 642.275 586.404C644.24 586.404 645.868 585.744 647.159 584.424C648.45 583.104 649.095 581.388 649.095 579.276V566.252H652.439V589H649.095V585.04C647.247 588.003 644.651 589.484 641.307 589.484ZM671.852 589V561.412H661.512V558.2H685.712V561.412H675.372V589H671.852ZM703.111 589.484C700.413 589.484 698.286 588.663 696.731 587.02C695.177 585.348 694.399 583.133 694.399 580.376V566.252H697.787V579.54C697.787 581.681 698.33 583.368 699.415 584.6C700.53 585.803 702.085 586.404 704.079 586.404C706.045 586.404 707.673 585.744 708.963 584.424C710.254 583.104 710.899 581.388 710.899 579.276V566.252H714.243V589H710.899V585.04C709.051 588.003 706.455 589.484 703.111 589.484ZM737.045 589.484C733.466 589.484 730.562 587.871 728.333 584.644V589H724.945V556.88H728.333V570.828C730.621 567.455 733.525 565.768 737.045 565.768C739.949 565.768 742.486 566.853 744.657 569.024C746.827 571.165 747.913 574.04 747.913 577.648C747.913 581.197 746.827 584.057 744.657 586.228C742.486 588.399 739.949 589.484 737.045 589.484ZM736.429 586.448C738.717 586.448 740.623 585.656 742.149 584.072C743.674 582.459 744.437 580.303 744.437 577.604C744.437 574.993 743.659 572.881 742.105 571.268C740.55 569.625 738.658 568.804 736.429 568.804C734.229 568.804 732.307 569.64 730.665 571.312C729.022 572.984 728.201 575.096 728.201 577.648C728.201 580.2 729.022 582.312 730.665 583.984C732.307 585.627 734.229 586.448 736.429 586.448ZM759.267 579.012C759.502 581.329 760.367 583.177 761.863 584.556C763.389 585.905 765.193 586.58 767.275 586.58C770.003 586.58 772.394 585.509 774.447 583.368L776.559 585.26C774.007 588.105 770.883 589.528 767.187 589.528C763.99 589.528 761.291 588.428 759.091 586.228C756.921 583.999 755.835 581.139 755.835 577.648C755.835 574.333 756.877 571.532 758.959 569.244C761.042 566.927 763.638 565.768 766.747 565.768C770.003 565.768 772.585 566.912 774.491 569.2C776.398 571.488 777.351 574.363 777.351 577.824C777.351 578.264 777.337 578.66 777.307 579.012H759.267ZM759.267 576.284H773.919C773.714 574.084 772.981 572.265 771.719 570.828C770.487 569.361 768.801 568.628 766.659 568.628C764.723 568.628 763.066 569.347 761.687 570.784C760.309 572.221 759.502 574.055 759.267 576.284ZM490.703 631V608.252H494.091V621.364L506.543 608.252H510.723L501.219 618.108L510.987 631H506.983L498.887 620.572L494.091 625.5V631H490.703ZM525.524 631.484C523.207 631.484 521.212 630.853 519.54 629.592C517.868 628.331 517.032 626.571 517.032 624.312C517.032 621.936 517.912 620.103 519.672 618.812C521.432 617.521 523.793 616.876 526.756 616.876C529.103 616.876 531.42 617.199 533.708 617.844V617.14C533.708 615.145 533.121 613.62 531.948 612.564C530.775 611.508 529.117 610.98 526.976 610.98C524.747 610.98 522.444 611.523 520.068 612.608L519.056 609.836C521.872 608.545 524.629 607.9 527.328 607.9C530.555 607.9 533.004 608.736 534.676 610.408C536.26 611.992 537.052 614.221 537.052 617.096V631H533.708V627.612C531.684 630.193 528.956 631.484 525.524 631.484ZM526.184 628.756C528.296 628.756 530.085 628.184 531.552 627.04C533.019 625.896 533.752 624.429 533.752 622.64V620.528C531.523 619.883 529.308 619.56 527.108 619.56C525.025 619.56 523.397 619.985 522.224 620.836C521.051 621.657 520.464 622.787 520.464 624.224C520.464 625.603 521.007 626.703 522.092 627.524C523.207 628.345 524.571 628.756 526.184 628.756ZM547.308 631V608.252H550.696V618.064H563.808V608.252H567.196V631H563.808V621.056H550.696V631H547.308ZM584.621 631.484C582.304 631.484 580.309 630.853 578.637 629.592C576.965 628.331 576.129 626.571 576.129 624.312C576.129 621.936 577.009 620.103 578.769 618.812C580.529 617.521 582.891 616.876 585.853 616.876C588.2 616.876 590.517 617.199 592.805 617.844V617.14C592.805 615.145 592.219 613.62 591.045 612.564C589.872 611.508 588.215 610.98 586.073 610.98C583.844 610.98 581.541 611.523 579.165 612.608L578.153 609.836C580.969 608.545 583.727 607.9 586.425 607.9C589.652 607.9 592.101 608.736 593.773 610.408C595.357 611.992 596.149 614.221 596.149 617.096V631H592.805V627.612C590.781 630.193 588.053 631.484 584.621 631.484ZM585.281 628.756C587.393 628.756 589.183 628.184 590.649 627.04C592.116 625.896 592.849 624.429 592.849 622.64V620.528C590.62 619.883 588.405 619.56 586.205 619.56C584.123 619.56 582.495 619.985 581.321 620.836C580.148 621.657 579.561 622.787 579.561 624.224C579.561 625.603 580.104 626.703 581.189 627.524C582.304 628.345 583.668 628.756 585.281 628.756ZM605.306 631.352C604.426 631.352 603.517 631.235 602.578 631L602.974 628.096C603.649 628.301 604.191 628.404 604.602 628.404C605.247 628.404 605.775 628.331 606.186 628.184C606.597 628.008 607.037 627.583 607.506 626.908C608.005 626.204 608.386 625.221 608.65 623.96C608.914 622.699 609.134 620.909 609.31 618.592C609.515 616.275 609.618 613.459 609.618 610.144V608.252H625.722V631H622.334V611.244H612.83V611.772C612.83 615.233 612.698 618.181 612.434 620.616C612.17 623.051 611.833 624.957 611.422 626.336C611.041 627.715 610.498 628.785 609.794 629.548C609.09 630.311 608.401 630.795 607.726 631C607.081 631.235 606.274 631.352 605.306 631.352ZM643.16 631.484C640.843 631.484 638.848 630.853 637.176 629.592C635.504 628.331 634.668 626.571 634.668 624.312C634.668 621.936 635.548 620.103 637.308 618.812C639.068 617.521 641.43 616.876 644.392 616.876C646.739 616.876 649.056 617.199 651.344 617.844V617.14C651.344 615.145 650.758 613.62 649.584 612.564C648.411 611.508 646.754 610.98 644.612 610.98C642.383 610.98 640.08 611.523 637.704 612.608L636.692 609.836C639.508 608.545 642.266 607.9 644.964 607.9C648.191 607.9 650.64 608.736 652.312 610.408C653.896 611.992 654.688 614.221 654.688 617.096V631H651.344V627.612C649.32 630.193 646.592 631.484 643.16 631.484ZM643.82 628.756C645.932 628.756 647.722 628.184 649.188 627.04C650.655 625.896 651.388 624.429 651.388 622.64V620.528C649.159 619.883 646.944 619.56 644.744 619.56C642.662 619.56 641.034 619.985 639.86 620.836C638.687 621.657 638.1 622.787 638.1 624.224C638.1 625.603 638.643 626.703 639.728 627.524C640.843 628.345 642.207 628.756 643.82 628.756Z" fill="black"/>
<path d="M351.078 589L350.289 588.385L349.031 590H351.078V589ZM360.714 576.636L361.503 577.251L362.516 575.951L360.895 575.652L360.714 576.636ZM354.598 573.6L353.878 574.294L353.884 574.3L354.598 573.6ZM354.642 561.324L355.335 562.045L355.342 562.038L355.349 562.031L354.642 561.324ZM376.774 558.2H377.774V557.2H376.774V558.2ZM376.774 589V590H377.774V589H376.774ZM373.298 589H372.298V590H373.298V589ZM373.298 577.208H374.298V576.208H373.298V577.208ZM364.454 577.208V576.208H363.964L363.664 576.595L364.454 577.208ZM355.302 589V590H355.792L356.092 589.613L355.302 589ZM373.298 574.26V575.26H374.298V574.26H373.298ZM373.298 561.324H374.298V560.324H373.298V561.324ZM357.898 563.084L358.529 563.86L358.53 563.859L357.898 563.084ZM358.03 572.5L357.403 573.279L357.413 573.287L358.03 572.5ZM351.867 589.615L361.503 577.251L359.925 576.021L350.289 588.385L351.867 589.615ZM360.895 575.652C358.506 575.213 356.667 574.281 355.312 572.9L353.884 574.3C355.58 576.028 357.818 577.12 360.533 577.62L360.895 575.652ZM355.318 572.906C353.997 571.534 353.31 569.756 353.31 567.484H351.31C351.31 570.199 352.149 572.498 353.878 574.294L355.318 572.906ZM353.31 567.484C353.31 565.084 354.017 563.313 355.335 562.045L353.949 560.603C352.158 562.327 351.31 564.663 351.31 567.484H353.31ZM355.349 562.031C357.189 560.191 359.893 559.2 363.618 559.2V557.2C359.541 557.2 356.26 558.292 353.935 560.617L355.349 562.031ZM363.618 559.2H376.774V557.2H363.618V559.2ZM375.774 558.2V589H377.774V558.2H375.774ZM376.774 588H373.298V590H376.774V588ZM374.298 589V577.208H372.298V589H374.298ZM373.298 576.208H364.454V578.208H373.298V576.208ZM363.664 576.595L354.512 588.387L356.092 589.613L365.244 577.821L363.664 576.595ZM355.302 588H351.078V590H355.302V588ZM363.838 575.26H373.298V573.26H363.838V575.26ZM374.298 574.26V561.324H372.298V574.26H374.298ZM373.298 560.324H363.838V562.324H373.298V560.324ZM363.838 560.324C361.168 560.324 358.936 560.945 357.266 562.309L358.53 563.859C359.734 562.876 361.463 562.324 363.838 562.324V560.324ZM357.267 562.308C355.604 563.659 354.786 565.51 354.786 567.748H356.786C356.786 566.055 357.376 564.797 358.529 563.86L357.267 562.308ZM354.786 567.748C354.786 570.008 355.665 571.882 357.404 573.279L358.657 571.721C357.403 570.713 356.786 569.419 356.786 567.748H354.786ZM357.413 573.287C359.125 574.63 361.295 575.26 363.838 575.26V573.26C361.629 573.26 359.927 572.717 358.647 571.713L357.413 573.287ZM405.04 587.592L404.438 588.39L405.04 587.592ZM405.172 576.812L405.764 577.618L405.172 576.812ZM419.208 575.844L418.937 576.806L420.208 577.165V575.844H419.208ZM417.448 570.564L418.117 569.821L417.448 570.564ZM405.568 570.608L404.629 570.951L405 571.967L405.984 571.518L405.568 570.608ZM404.556 567.836L404.14 566.927L403.3 567.312L403.617 568.179L404.556 567.836ZM420.176 568.408L419.469 569.115L420.176 568.408ZM422.552 589V590H423.552V589H422.552ZM419.208 589H418.208V590H419.208V589ZM419.208 585.612H420.208V582.716L418.421 584.995L419.208 585.612ZM417.052 585.04L416.437 584.251L417.052 585.04ZM419.252 578.528H420.252V577.776L419.53 577.567L419.252 578.528ZM407.724 578.836L408.298 579.655L408.305 579.65L408.311 579.646L407.724 578.836ZM407.592 585.524L406.989 586.321L406.999 586.329L407.592 585.524ZM411.024 588.484C408.9 588.484 407.123 587.91 405.643 586.794L404.438 588.39C406.302 589.796 408.514 590.484 411.024 590.484V588.484ZM405.643 586.794C404.243 585.738 403.532 584.285 403.532 582.312H401.532C401.532 584.856 402.494 586.923 404.438 588.39L405.643 586.794ZM403.532 582.312C403.532 580.222 404.286 578.702 405.764 577.618L404.581 576.006C402.539 577.503 401.532 579.65 401.532 582.312H403.532ZM405.764 577.618C407.3 576.492 409.431 575.876 412.256 575.876V573.876C409.156 573.876 406.564 574.551 404.581 576.006L405.764 577.618ZM412.256 575.876C414.51 575.876 416.736 576.186 418.937 576.806L419.48 574.882C417.105 574.212 414.696 573.876 412.256 573.876V575.876ZM420.208 575.844V575.14H418.208V575.844H420.208ZM420.208 575.14C420.208 572.942 419.554 571.114 418.117 569.821L416.779 571.307C417.689 572.126 418.208 573.349 418.208 575.14H420.208ZM418.117 569.821C416.703 568.548 414.776 567.98 412.476 567.98V569.98C414.46 569.98 415.846 570.468 416.779 571.307L418.117 569.821ZM412.476 567.98C410.081 567.98 407.637 568.564 405.153 569.698L405.984 571.518C408.252 570.482 410.413 569.98 412.476 569.98V567.98ZM406.508 570.265L405.496 567.493L403.617 568.179L404.629 570.951L406.508 570.265ZM404.973 568.745C407.677 567.505 410.293 566.9 412.828 566.9V564.9C409.966 564.9 407.067 565.585 404.14 566.927L404.973 568.745ZM412.828 566.9C415.889 566.9 418.045 567.691 419.469 569.115L420.883 567.701C418.964 565.781 416.221 564.9 412.828 564.9V566.9ZM419.469 569.115C420.817 570.462 421.552 572.408 421.552 575.096H423.552C423.552 572.035 422.704 569.522 420.883 567.701L419.469 569.115ZM421.552 575.096V589H423.552V575.096H421.552ZM422.552 588H419.208V590H422.552V588ZM420.208 589V585.612H418.208V589H420.208ZM418.421 584.995C416.597 587.322 414.166 588.484 411.024 588.484V590.484C414.747 590.484 417.772 589.065 419.995 586.229L418.421 584.995ZM411.684 587.756C413.987 587.756 416.001 587.128 417.667 585.829L416.437 584.251C415.17 585.24 413.605 585.756 411.684 585.756V587.756ZM417.667 585.829C419.366 584.504 420.252 582.751 420.252 580.64H418.252C418.252 582.107 417.672 583.288 416.437 584.251L417.667 585.829ZM420.252 580.64V578.528H418.252V580.64H420.252ZM419.53 577.567C417.216 576.897 414.907 576.56 412.608 576.56V578.56C414.709 578.56 416.83 578.868 418.974 579.489L419.53 577.567ZM412.608 576.56C410.403 576.56 408.541 577.008 407.137 578.026L408.311 579.646C409.254 578.962 410.648 578.56 412.608 578.56V576.56ZM407.151 578.017C405.709 579.026 404.964 580.462 404.964 582.224H406.964C406.964 581.112 407.393 580.289 408.298 579.655L407.151 578.017ZM404.964 582.224C404.964 583.911 405.65 585.308 406.989 586.321L408.196 584.727C407.364 584.097 406.964 583.294 406.964 582.224H404.964ZM406.999 586.329C408.313 587.297 409.894 587.756 411.684 587.756V585.756C410.248 585.756 409.101 585.394 408.185 584.719L406.999 586.329ZM432.809 589H431.809V590H432.809V589ZM432.809 566.252V565.252H431.809V566.252H432.809ZM449.221 567.792L449.826 566.996L449.221 567.792ZM447.461 577.164L447.075 576.242L444.39 577.365L447.198 578.129L447.461 577.164ZM450.233 587.328L449.635 586.526L450.233 587.328ZM436.197 586.096H435.197V587.096H436.197V586.096ZM447.505 579.672L446.968 580.516L446.979 580.523L447.505 579.672ZM436.197 578.748V577.748H435.197V578.748H436.197ZM436.197 576.02H435.197V577.02H436.197V576.02ZM446.537 575.096L447.137 575.896L447.141 575.893L446.537 575.096ZM446.625 570.036L446.03 570.84L446.625 570.036ZM436.197 569.156V568.156H435.197V569.156H436.197ZM433.809 589V566.252H431.809V589H433.809ZM432.809 567.252H443.809V565.252H432.809V567.252ZM443.809 567.252C445.921 567.252 447.49 567.732 448.615 568.588L449.826 566.996C448.253 565.799 446.214 565.252 443.809 565.252V567.252ZM448.615 568.588C449.71 569.421 450.245 570.502 450.245 571.928H452.245C452.245 569.893 451.43 568.217 449.826 566.996L448.615 568.588ZM450.245 571.928C450.245 572.964 449.98 573.797 449.488 574.477C448.991 575.165 448.211 575.766 447.075 576.242L447.847 578.086C449.233 577.506 450.345 576.706 451.109 575.649C451.879 574.584 452.245 573.327 452.245 571.928H450.245ZM447.198 578.129C448.752 578.551 449.809 579.17 450.476 579.919C451.127 580.65 451.477 581.584 451.477 582.796H453.477C453.477 581.163 452.99 579.735 451.97 578.589C450.964 577.46 449.514 576.686 447.723 576.199L447.198 578.129ZM451.477 582.796C451.477 584.395 450.871 585.605 449.635 586.526L450.83 588.13C452.586 586.822 453.477 585.01 453.477 582.796H451.477ZM449.635 586.526C448.364 587.474 446.587 588 444.205 588V590C446.868 590 449.11 589.412 450.83 588.13L449.635 586.526ZM444.205 588H432.809V590H444.205V588ZM436.197 587.096H443.765V585.096H436.197V587.096ZM443.765 587.096C445.507 587.096 447.012 586.733 448.176 585.896L447.009 584.272C446.296 584.785 445.249 585.096 443.765 585.096V587.096ZM448.176 585.896C449.389 585.025 450.001 583.777 450.001 582.268H448.001C448.001 583.164 447.674 583.794 447.009 584.272L448.176 585.896ZM450.001 582.268C450.001 580.785 449.304 579.608 448.03 578.821L446.979 580.523C447.7 580.968 448.001 581.521 448.001 582.268H450.001ZM448.042 578.828C446.845 578.067 445.232 577.748 443.325 577.748V579.748C445.055 579.748 446.229 580.045 446.968 580.516L448.042 578.828ZM443.325 577.748H436.197V579.748H443.325V577.748ZM435.197 578.748V586.096H437.197V578.748H435.197ZM436.197 577.02H443.193V575.02H436.197V577.02ZM443.193 577.02C444.738 577.02 446.088 576.682 447.137 575.896L445.937 574.296C445.343 574.742 444.463 575.02 443.193 575.02V577.02ZM447.141 575.893C448.268 575.038 448.813 573.819 448.813 572.368H446.813C446.813 573.264 446.507 573.864 445.932 574.299L447.141 575.893ZM448.813 572.368C448.813 571.076 448.261 570.004 447.22 569.232L446.03 570.84C446.572 571.242 446.813 571.724 446.813 572.368H448.813ZM447.22 569.232C446.193 568.472 444.838 568.156 443.281 568.156V570.156C444.598 570.156 445.473 570.427 446.03 570.84L447.22 569.232ZM443.281 568.156H436.197V570.156H443.281V568.156ZM435.197 569.156V576.02H437.197V569.156H435.197ZM467.17 589H466.17V590H467.17V589ZM467.17 569.244H468.17V568.244H467.17V569.244ZM459.03 569.244H458.03V570.244H459.03V569.244ZM459.03 566.252V565.252H458.03V566.252H459.03ZM478.742 566.252H479.742V565.252H478.742V566.252ZM478.742 569.244V570.244H479.742V569.244H478.742ZM470.602 569.244V568.244H469.602V569.244H470.602ZM470.602 589V590H471.602V589H470.602ZM468.17 589V569.244H466.17V589H468.17ZM467.17 568.244H459.03V570.244H467.17V568.244ZM460.03 569.244V566.252H458.03V569.244H460.03ZM459.03 567.252H478.742V565.252H459.03V567.252ZM477.742 566.252V569.244H479.742V566.252H477.742ZM478.742 568.244H470.602V570.244H478.742V568.244ZM469.602 569.244V589H471.602V569.244H469.602ZM470.602 588H467.17V590H470.602V588ZM505.626 586.052L506.338 586.755L506.342 586.75L505.626 586.052ZM488.686 586.052L487.965 586.745L487.97 586.75L488.686 586.052ZM488.73 569.288L488.014 568.59L488.014 568.59L488.73 569.288ZM505.67 569.244L506.386 568.546L505.67 569.244ZM503.206 583.94L502.474 583.259L502.468 583.265L503.206 583.94ZM503.118 571.356L502.387 572.038L502.393 572.044L503.118 571.356ZM491.15 571.356L491.888 572.031L491.894 572.024L491.15 571.356ZM491.238 583.94L490.507 584.622L490.512 584.628L491.238 583.94ZM504.914 585.349C502.822 587.469 500.251 588.528 497.134 588.528V590.528C500.764 590.528 503.854 589.27 506.338 586.755L504.914 585.349ZM497.134 588.528C494.018 588.528 491.464 587.469 489.402 585.354L487.97 586.75C490.426 589.269 493.504 590.528 497.134 590.528V588.528ZM489.407 585.359C487.361 583.232 486.342 580.681 486.342 577.648H484.342C484.342 581.186 485.553 584.237 487.965 586.745L489.407 585.359ZM486.342 577.648C486.342 574.651 487.371 572.115 489.446 569.986L488.014 568.59C485.572 571.095 484.342 574.133 484.342 577.648H486.342ZM489.446 569.986C491.54 567.839 494.109 566.768 497.222 566.768V564.768C493.588 564.768 490.496 566.044 488.014 568.59L489.446 569.986ZM497.222 566.768C500.338 566.768 502.892 567.827 504.954 569.942L506.386 568.546C503.93 566.027 500.852 564.768 497.222 564.768V566.768ZM504.954 569.942C507.027 572.069 508.058 574.619 508.058 577.648H510.058C510.058 574.106 508.83 571.053 506.386 568.546L504.954 569.942ZM508.058 577.648C508.058 580.641 507.017 583.193 504.91 585.354L506.342 586.75C508.811 584.218 510.058 581.167 510.058 577.648H508.058ZM497.222 587.492C499.92 587.492 502.188 586.536 503.944 584.615L502.468 583.265C501.114 584.747 499.394 585.492 497.222 585.492V587.492ZM503.938 584.621C505.707 582.721 506.582 580.374 506.582 577.648H504.582C504.582 579.909 503.873 581.757 502.474 583.259L503.938 584.621ZM506.582 577.648C506.582 574.937 505.669 572.591 503.843 570.668L502.393 572.044C503.853 573.583 504.582 575.431 504.582 577.648H506.582ZM503.849 570.674C502.046 568.74 499.786 567.76 497.134 567.76V569.76C499.234 569.76 500.963 570.511 502.387 572.038L503.849 570.674ZM497.134 567.76C494.43 567.76 492.16 568.735 490.406 570.688L491.894 572.024C493.249 570.516 494.968 569.76 497.134 569.76V567.76ZM490.412 570.681C488.674 572.583 487.818 574.927 487.818 577.648H489.818C489.818 575.382 490.516 573.532 491.888 572.031L490.412 570.681ZM487.818 577.648C487.818 580.354 488.713 582.698 490.507 584.622L491.969 583.258C490.536 581.721 489.818 579.87 489.818 577.648H487.818ZM490.512 584.628C492.317 586.532 494.576 587.492 497.222 587.492V585.492C495.116 585.492 493.385 584.751 491.964 583.252L490.512 584.628ZM518.275 596.04H517.275V597.04H518.275V596.04ZM518.275 566.252V565.252H517.275V566.252H518.275ZM521.663 566.252H522.663V565.252H521.663V566.252ZM521.663 570.828H520.663V574.084L522.491 571.389L521.663 570.828ZM537.987 569.024L537.28 569.731L537.285 569.736L537.987 569.024ZM537.987 586.228L538.694 586.935L537.987 586.228ZM521.663 584.644L522.486 584.076L520.663 581.437V584.644H521.663ZM521.663 596.04V597.04H522.663V596.04H521.663ZM535.479 584.072L536.2 584.766L536.206 584.759L535.479 584.072ZM535.435 571.268L534.709 571.955L534.715 571.962L535.435 571.268ZM523.995 571.312L524.709 572.013L523.995 571.312ZM523.995 583.984L523.282 584.685L523.288 584.691L523.995 583.984ZM519.275 596.04V566.252H517.275V596.04H519.275ZM518.275 567.252H521.663V565.252H518.275V567.252ZM520.663 566.252V570.828H522.663V566.252H520.663ZM522.491 571.389C524.627 568.24 527.243 566.768 530.375 566.768V564.768C526.467 564.768 523.276 566.669 520.836 570.267L522.491 571.389ZM530.375 566.768C532.998 566.768 535.285 567.736 537.28 569.731L538.694 568.317C536.348 565.971 533.561 564.768 530.375 564.768V566.768ZM537.285 569.736C539.231 571.655 540.243 574.255 540.243 577.648H542.243C542.243 573.825 541.085 570.675 538.69 568.312L537.285 569.736ZM540.243 577.648C540.243 580.977 539.234 583.567 537.28 585.521L538.694 586.935C541.082 584.547 542.243 581.418 542.243 577.648H540.243ZM537.28 585.521C535.285 587.516 532.998 588.484 530.375 588.484V590.484C533.561 590.484 536.348 589.281 538.694 586.935L537.28 585.521ZM530.375 588.484C527.16 588.484 524.55 587.062 522.486 584.076L520.841 585.212C523.236 588.679 526.433 590.484 530.375 590.484V588.484ZM520.663 584.644V596.04H522.663V584.644H520.663ZM521.663 595.04H518.275V597.04H521.663V595.04ZM529.759 587.448C532.307 587.448 534.477 586.554 536.2 584.766L534.759 583.378C533.431 584.758 531.788 585.448 529.759 585.448V587.448ZM536.206 584.759C537.943 582.922 538.767 580.5 538.767 577.604H536.767C536.767 580.105 536.066 581.996 534.753 583.385L536.206 584.759ZM538.767 577.604C538.767 574.78 537.919 572.404 536.155 570.574L534.715 571.962C536.061 573.358 536.767 575.206 536.767 577.604H538.767ZM536.162 570.581C534.421 568.742 532.268 567.804 529.759 567.804V569.804C531.709 569.804 533.34 570.509 534.709 571.955L536.162 570.581ZM529.759 567.804C527.272 567.804 525.099 568.762 523.282 570.611L524.709 572.013C526.177 570.518 527.846 569.804 529.759 569.804V567.804ZM523.282 570.611C521.438 572.488 520.531 574.859 520.531 577.648H522.531C522.531 575.333 523.267 573.48 524.709 572.013L523.282 570.611ZM520.531 577.648C520.531 580.437 521.438 582.808 523.282 584.685L524.709 583.283C523.267 581.816 522.531 579.963 522.531 577.648H520.531ZM523.288 584.691C525.107 586.51 527.278 587.448 529.759 587.448V585.448C527.841 585.448 526.169 584.744 524.702 583.277L523.288 584.691ZM577.053 589H576.053V590H577.053V589ZM577.053 576.812H578.053V576.501L577.877 576.245L577.053 576.812ZM564.249 558.2V557.2H562.348L563.426 558.767L564.249 558.2ZM568.473 558.2L569.303 557.641L569.005 557.2H568.473V558.2ZM578.857 573.6L578.028 574.159L578.854 575.384L579.684 574.162L578.857 573.6ZM589.329 558.2V557.2H588.8L588.503 557.638L589.329 558.2ZM593.377 558.2L594.201 558.768L595.282 557.2H593.377V558.2ZM580.573 576.768L579.75 576.2L579.573 576.457V576.768H580.573ZM580.573 589V590H581.573V589H580.573ZM578.053 589V576.812H576.053V589H578.053ZM577.877 576.245L565.073 557.633L563.426 558.767L576.23 577.379L577.877 576.245ZM564.249 559.2H568.473V557.2H564.249V559.2ZM567.644 558.759L578.028 574.159L579.687 573.041L569.303 557.641L567.644 558.759ZM579.684 574.162L590.156 558.762L588.503 557.638L578.031 573.038L579.684 574.162ZM589.329 559.2H593.377V557.2H589.329V559.2ZM592.554 557.632L579.75 576.2L581.397 577.336L594.201 558.768L592.554 557.632ZM579.573 576.768V589H581.573V576.768H579.573ZM580.573 588H577.053V590H580.573V588ZM620.298 586.052L621.009 586.755L621.014 586.75L620.298 586.052ZM603.358 586.052L602.637 586.745L602.641 586.75L603.358 586.052ZM603.402 569.288L602.686 568.59L602.685 568.59L603.402 569.288ZM620.342 569.244L621.058 568.546L620.342 569.244ZM617.878 583.94L617.146 583.259L617.139 583.265L617.878 583.94ZM617.79 571.356L617.058 572.038L617.064 572.044L617.79 571.356ZM605.822 571.356L606.56 572.031L606.565 572.024L605.822 571.356ZM605.91 583.94L605.178 584.622L605.184 584.628L605.91 583.94ZM619.586 585.349C617.493 587.469 614.922 588.528 611.806 588.528V590.528C615.436 590.528 618.526 589.27 621.009 586.755L619.586 585.349ZM611.806 588.528C608.689 588.528 606.135 587.469 604.074 585.354L602.641 586.75C605.097 589.269 608.175 590.528 611.806 590.528V588.528ZM604.078 585.359C602.032 583.232 601.014 580.681 601.014 577.648H599.014C599.014 581.186 600.224 584.237 602.637 586.745L604.078 585.359ZM601.014 577.648C601.014 574.651 602.042 572.115 604.118 569.986L602.685 568.59C600.244 571.095 599.014 574.133 599.014 577.648H601.014ZM604.118 569.986C606.211 567.839 608.781 566.768 611.894 566.768V564.768C608.259 564.768 605.168 566.044 602.686 568.59L604.118 569.986ZM611.894 566.768C615.01 566.768 617.564 567.827 619.625 569.942L621.058 568.546C618.602 566.027 615.524 564.768 611.894 564.768V566.768ZM619.625 569.942C621.699 572.069 622.73 574.619 622.73 577.648H624.73C624.73 574.106 623.501 571.053 621.058 568.546L619.625 569.942ZM622.73 577.648C622.73 580.641 621.689 583.193 619.582 585.354L621.014 586.75C623.482 584.218 624.73 581.167 624.73 577.648H622.73ZM611.894 587.492C614.591 587.492 616.86 586.536 618.616 584.615L617.139 583.265C615.786 584.747 614.065 585.492 611.894 585.492V587.492ZM618.609 584.621C620.379 582.721 621.254 580.374 621.254 577.648H619.254C619.254 579.909 618.544 581.757 617.146 583.259L618.609 584.621ZM621.254 577.648C621.254 574.937 620.34 572.591 618.515 570.668L617.064 572.044C618.524 573.583 619.254 575.431 619.254 577.648H621.254ZM618.521 570.674C616.718 568.74 614.458 567.76 611.806 567.76V569.76C613.906 569.76 615.635 570.511 617.058 572.038L618.521 570.674ZM611.806 567.76C609.102 567.76 606.832 568.735 605.078 570.688L606.565 572.024C607.921 570.516 609.64 569.76 611.806 569.76V567.76ZM605.083 570.681C603.346 572.583 602.49 574.927 602.49 577.648H604.49C604.49 575.382 605.188 573.532 606.56 572.031L605.083 570.681ZM602.49 577.648C602.49 580.354 603.384 582.698 605.178 584.622L606.641 583.258C605.208 581.721 604.49 579.87 604.49 577.648H602.49ZM605.184 584.628C606.989 586.532 609.247 587.492 611.894 587.492V585.492C609.788 585.492 608.057 584.751 606.635 583.252L605.184 584.628ZM634.927 587.02L634.195 587.701L634.201 587.707L634.927 587.02ZM632.595 566.252V565.252H631.595V566.252H632.595ZM635.983 566.252H636.983V565.252H635.983V566.252ZM637.611 584.6L636.861 585.261L636.869 585.271L636.877 585.28L637.611 584.6ZM647.159 584.424L647.874 585.123L647.159 584.424ZM649.095 566.252V565.252H648.095V566.252H649.095ZM652.439 566.252H653.439V565.252H652.439V566.252ZM652.439 589V590H653.439V589H652.439ZM649.095 589H648.095V590H649.095V589ZM649.095 585.04H650.095V581.547L648.246 584.511L649.095 585.04ZM641.307 588.484C638.826 588.484 636.983 587.738 635.653 586.333L634.201 587.707C635.98 589.588 638.391 590.484 641.307 590.484V588.484ZM635.659 586.339C634.311 584.889 633.595 582.936 633.595 580.376H631.595C631.595 583.331 632.433 585.807 634.195 587.701L635.659 586.339ZM633.595 580.376V566.252H631.595V580.376H633.595ZM632.595 567.252H635.983V565.252H632.595V567.252ZM634.983 566.252V579.54H636.983V566.252H634.983ZM634.983 579.54C634.983 581.849 635.57 583.797 636.861 585.261L638.361 583.939C637.481 582.939 636.983 581.514 636.983 579.54H634.983ZM636.877 585.28C638.221 586.73 640.067 587.404 642.275 587.404V585.404C640.494 585.404 639.23 584.875 638.344 583.92L636.877 585.28ZM642.275 587.404C644.49 587.404 646.382 586.649 647.874 585.123L646.444 583.725C645.354 584.839 643.99 585.404 642.275 585.404V587.404ZM647.874 585.123C649.374 583.589 650.095 581.609 650.095 579.276H648.095C648.095 581.167 647.525 582.619 646.444 583.725L647.874 585.123ZM650.095 579.276V566.252H648.095V579.276H650.095ZM649.095 567.252H652.439V565.252H649.095V567.252ZM651.439 566.252V589H653.439V566.252H651.439ZM652.439 588H649.095V590H652.439V588ZM650.095 589V585.04H648.095V589H650.095ZM648.246 584.511C646.571 587.196 644.288 588.484 641.307 588.484V590.484C645.014 590.484 647.922 588.809 649.943 585.569L648.246 584.511ZM671.852 589H670.852V590H671.852V589ZM671.852 561.412H672.852V560.412H671.852V561.412ZM661.512 561.412H660.512V562.412H661.512V561.412ZM661.512 558.2V557.2H660.512V558.2H661.512ZM685.712 558.2H686.712V557.2H685.712V558.2ZM685.712 561.412V562.412H686.712V561.412H685.712ZM675.372 561.412V560.412H674.372V561.412H675.372ZM675.372 589V590H676.372V589H675.372ZM672.852 589V561.412H670.852V589H672.852ZM671.852 560.412H661.512V562.412H671.852V560.412ZM662.512 561.412V558.2H660.512V561.412H662.512ZM661.512 559.2H685.712V557.2H661.512V559.2ZM684.712 558.2V561.412H686.712V558.2H684.712ZM685.712 560.412H675.372V562.412H685.712V560.412ZM674.372 561.412V589H676.372V561.412H674.372ZM675.372 588H671.852V590H675.372V588ZM696.731 587.02L695.999 587.701L696.005 587.707L696.731 587.02ZM694.399 566.252V565.252H693.399V566.252H694.399ZM697.787 566.252H698.787V565.252H697.787V566.252ZM699.415 584.6L698.665 585.261L698.673 585.271L698.682 585.28L699.415 584.6ZM708.963 584.424L709.678 585.123L708.963 584.424ZM710.899 566.252V565.252H709.899V566.252H710.899ZM714.243 566.252H715.243V565.252H714.243V566.252ZM714.243 589V590H715.243V589H714.243ZM710.899 589H709.899V590H710.899V589ZM710.899 585.04H711.899V581.547L710.051 584.511L710.899 585.04ZM703.111 588.484C700.63 588.484 698.787 587.738 697.458 586.333L696.005 587.707C697.785 589.588 700.195 590.484 703.111 590.484V588.484ZM697.464 586.339C696.115 584.889 695.399 582.936 695.399 580.376H693.399C693.399 583.331 694.238 585.807 695.999 587.701L697.464 586.339ZM695.399 580.376V566.252H693.399V580.376H695.399ZM694.399 567.252H697.787V565.252H694.399V567.252ZM696.787 566.252V579.54H698.787V566.252H696.787ZM696.787 579.54C696.787 581.849 697.375 583.797 698.665 585.261L700.166 583.939C699.285 582.939 698.787 581.514 698.787 579.54H696.787ZM698.682 585.28C700.026 586.73 701.871 587.404 704.079 587.404V585.404C702.298 585.404 701.034 584.875 700.149 583.92L698.682 585.28ZM704.079 587.404C706.295 587.404 708.186 586.649 709.678 585.123L708.248 583.725C707.159 584.839 705.795 585.404 704.079 585.404V587.404ZM709.678 585.123C711.178 583.589 711.899 581.609 711.899 579.276H709.899C709.899 581.167 709.33 582.619 708.248 583.725L709.678 585.123ZM711.899 579.276V566.252H709.899V579.276H711.899ZM710.899 567.252H714.243V565.252H710.899V567.252ZM713.243 566.252V589H715.243V566.252H713.243ZM714.243 588H710.899V590H714.243V588ZM711.899 589V585.04H709.899V589H711.899ZM710.051 584.511C708.376 587.196 706.092 588.484 703.111 588.484V590.484C706.819 590.484 709.727 588.809 711.748 585.569L710.051 584.511ZM728.333 584.644L729.155 584.076L727.333 581.437V584.644H728.333ZM728.333 589V590H729.333V589H728.333ZM724.945 589H723.945V590H724.945V589ZM724.945 556.88V555.88H723.945V556.88H724.945ZM728.333 556.88H729.333V555.88H728.333V556.88ZM728.333 570.828H727.333V574.084L729.16 571.389L728.333 570.828ZM744.657 569.024L743.95 569.731L743.954 569.736L744.657 569.024ZM744.657 586.228L745.364 586.935L744.657 586.228ZM742.149 584.072L742.869 584.766L742.875 584.759L742.149 584.072ZM742.105 571.268L741.378 571.955L741.385 571.962L742.105 571.268ZM730.665 571.312L731.378 572.013L730.665 571.312ZM730.665 583.984L729.951 584.685L729.958 584.691L730.665 583.984ZM737.045 588.484C733.83 588.484 731.219 587.062 729.155 584.076L727.51 585.212C729.905 588.679 733.102 590.484 737.045 590.484V588.484ZM727.333 584.644V589H729.333V584.644H727.333ZM728.333 588H724.945V590H728.333V588ZM725.945 589V556.88H723.945V589H725.945ZM724.945 557.88H728.333V555.88H724.945V557.88ZM727.333 556.88V570.828H729.333V556.88H727.333ZM729.16 571.389C731.296 568.24 733.913 566.768 737.045 566.768V564.768C733.137 564.768 729.945 566.669 727.505 570.267L729.16 571.389ZM737.045 566.768C739.667 566.768 741.955 567.736 743.95 569.731L745.364 568.317C743.018 565.971 740.23 564.768 737.045 564.768V566.768ZM743.954 569.736C745.9 571.655 746.913 574.255 746.913 577.648H748.913C748.913 573.825 747.755 570.675 745.359 568.312L743.954 569.736ZM746.913 577.648C746.913 580.977 745.903 583.567 743.95 585.521L745.364 586.935C747.752 584.547 748.913 581.418 748.913 577.648H746.913ZM743.95 585.521C741.955 587.516 739.667 588.484 737.045 588.484V590.484C740.23 590.484 743.018 589.281 745.364 586.935L743.95 585.521ZM736.429 587.448C738.976 587.448 741.147 586.554 742.869 584.766L741.428 583.378C740.1 584.758 738.457 585.448 736.429 585.448V587.448ZM742.875 584.759C744.612 582.922 745.437 580.5 745.437 577.604H743.437C743.437 580.105 742.736 581.996 741.422 583.385L742.875 584.759ZM745.437 577.604C745.437 574.78 744.589 572.404 742.825 570.574L741.385 571.962C742.73 573.358 743.437 575.206 743.437 577.604H745.437ZM742.831 570.581C741.091 568.742 738.937 567.804 736.429 567.804V569.804C738.379 569.804 740.01 570.509 741.378 571.955L742.831 570.581ZM736.429 567.804C733.942 567.804 731.768 568.762 729.951 570.611L731.378 572.013C732.846 570.518 734.516 569.804 736.429 569.804V567.804ZM729.951 570.611C728.108 572.488 727.201 574.859 727.201 577.648H729.201C729.201 575.333 729.936 573.48 731.378 572.013L729.951 570.611ZM727.201 577.648C727.201 580.437 728.108 582.808 729.951 584.685L731.378 583.283C729.936 581.816 729.201 579.963 729.201 577.648H727.201ZM729.958 584.691C731.776 586.51 733.947 587.448 736.429 587.448V585.448C734.51 585.448 732.839 584.744 731.372 583.277L729.958 584.691ZM759.267 579.012V578.012H758.161L758.273 579.113L759.267 579.012ZM761.863 584.556L761.186 585.291L761.193 585.298L761.201 585.305L761.863 584.556ZM774.447 583.368L775.115 582.623L774.395 581.978L773.726 582.676L774.447 583.368ZM776.559 585.26L777.304 585.928L777.972 585.183L777.227 584.515L776.559 585.26ZM759.091 586.228L758.375 586.926L758.384 586.935L759.091 586.228ZM758.959 569.244L759.699 569.917L759.703 569.912L758.959 569.244ZM774.491 569.2L773.723 569.84L774.491 569.2ZM777.307 579.012V580.012H778.228L778.304 579.095L777.307 579.012ZM759.267 576.284L758.273 576.179L758.157 577.284H759.267V576.284ZM773.919 576.284V577.284H775.017L774.915 576.191L773.919 576.284ZM771.719 570.828L770.954 571.471L770.961 571.479L770.968 571.488L771.719 570.828ZM761.687 570.784L760.966 570.092L761.687 570.784ZM758.273 579.113C758.528 581.636 759.484 583.723 761.186 585.291L762.541 583.821C761.251 582.632 760.476 581.023 760.262 578.911L758.273 579.113ZM761.201 585.305C762.914 586.82 764.955 587.58 767.275 587.58V585.58C765.431 585.58 763.864 584.991 762.526 583.807L761.201 585.305ZM767.275 587.58C770.301 587.58 772.946 586.379 775.169 584.06L773.726 582.676C771.843 584.64 769.706 585.58 767.275 585.58V587.58ZM773.78 584.113L775.892 586.005L777.227 584.515L775.115 582.623L773.78 584.113ZM775.815 584.592C773.445 587.234 770.589 588.528 767.187 588.528V590.528C771.178 590.528 774.57 588.976 777.304 585.928L775.815 584.592ZM767.187 588.528C764.247 588.528 761.805 587.528 759.799 585.521L758.384 586.935C760.778 589.328 763.733 590.528 767.187 590.528V588.528ZM759.808 585.53C757.842 583.511 756.835 580.913 756.835 577.648H754.835C754.835 581.365 756 584.486 758.375 586.926L759.808 585.53ZM756.835 577.648C756.835 574.563 757.797 572.007 759.699 569.917L758.22 568.571C755.957 571.057 754.835 574.104 754.835 577.648H756.835ZM759.703 569.912C761.597 567.806 763.923 566.768 766.747 566.768V564.768C763.354 564.768 760.488 566.048 758.216 568.576L759.703 569.912ZM766.747 566.768C769.738 566.768 772.026 567.803 773.723 569.84L775.26 568.56C773.144 566.021 770.269 564.768 766.747 564.768V566.768ZM773.723 569.84C775.456 571.92 776.351 574.557 776.351 577.824H778.351C778.351 574.169 777.34 571.056 775.26 568.56L773.723 569.84ZM776.351 577.824C776.351 578.243 776.337 578.61 776.311 578.929L778.304 579.095C778.336 578.71 778.351 578.285 778.351 577.824H776.351ZM777.307 578.012H759.267V580.012H777.307V578.012ZM759.267 577.284H773.919V575.284H759.267V577.284ZM774.915 576.191C774.693 573.815 773.892 571.788 772.471 570.168L770.968 571.488C772.069 572.743 772.735 574.353 772.924 576.377L774.915 576.191ZM772.485 570.185C771.039 568.464 769.057 567.628 766.659 567.628V569.628C768.545 569.628 769.936 570.259 770.954 571.471L772.485 570.185ZM766.659 567.628C764.442 567.628 762.527 568.464 760.966 570.092L762.409 571.476C763.605 570.229 765.005 569.628 766.659 569.628V567.628ZM760.966 570.092C759.414 571.709 758.528 573.758 758.273 576.179L760.262 576.389C760.476 574.351 761.203 572.733 762.409 571.476L760.966 570.092ZM490.703 631H489.703V632H490.703V631ZM490.703 608.252V607.252H489.703V608.252H490.703ZM494.091 608.252H495.091V607.252H494.091V608.252ZM494.091 621.364H493.091V623.869L494.816 622.053L494.091 621.364ZM506.543 608.252V607.252H506.114L505.818 607.563L506.543 608.252ZM510.723 608.252L511.443 608.946L513.077 607.252H510.723V608.252ZM501.219 618.108L500.499 617.414L499.905 618.03L500.422 618.712L501.219 618.108ZM510.987 631V632H512.999L511.784 630.396L510.987 631ZM506.983 631L506.193 631.613L506.494 632H506.983V631ZM498.887 620.572L499.677 619.959L498.972 619.051L498.171 619.875L498.887 620.572ZM494.091 625.5L493.375 624.803L493.091 625.094V625.5H494.091ZM494.091 631V632H495.091V631H494.091ZM491.703 631V608.252H489.703V631H491.703ZM490.703 609.252H494.091V607.252H490.703V609.252ZM493.091 608.252V621.364H495.091V608.252H493.091ZM494.816 622.053L507.268 608.941L505.818 607.563L493.366 620.675L494.816 622.053ZM506.543 609.252H510.723V607.252H506.543V609.252ZM510.003 607.558L500.499 617.414L501.939 618.802L511.443 608.946L510.003 607.558ZM500.422 618.712L510.19 631.604L511.784 630.396L502.016 617.504L500.422 618.712ZM510.987 630H506.983V632H510.987V630ZM507.773 630.387L499.677 619.959L498.097 621.185L506.193 631.613L507.773 630.387ZM498.171 619.875L493.375 624.803L494.808 626.197L499.604 621.269L498.171 619.875ZM493.091 625.5V631H495.091V625.5H493.091ZM494.091 630H490.703V632H494.091V630ZM519.54 629.592L518.938 630.39L519.54 629.592ZM519.672 618.812L520.263 619.618L519.672 618.812ZM533.708 617.844L533.437 618.806L534.708 619.165V617.844H533.708ZM531.948 612.564L532.617 611.821L531.948 612.564ZM520.068 612.608L519.129 612.951L519.5 613.967L520.483 613.518L520.068 612.608ZM519.056 609.836L518.639 608.927L517.8 609.312L518.117 610.179L519.056 609.836ZM534.676 610.408L533.969 611.115L534.676 610.408ZM537.052 631V632H538.052V631H537.052ZM533.708 631H532.708V632H533.708V631ZM533.708 627.612H534.708V624.716L532.921 626.995L533.708 627.612ZM531.552 627.04L530.937 626.251L531.552 627.04ZM533.752 620.528H534.752V619.776L534.03 619.567L533.752 620.528ZM522.224 620.836L522.797 621.655L522.804 621.65L522.811 621.646L522.224 620.836ZM522.092 627.524L521.488 628.321L521.499 628.329L522.092 627.524ZM525.524 630.484C523.4 630.484 521.622 629.91 520.142 628.794L518.938 630.39C520.802 631.797 523.014 632.484 525.524 632.484V630.484ZM520.142 628.794C518.743 627.738 518.032 626.285 518.032 624.312H516.032C516.032 626.856 516.993 628.923 518.938 630.39L520.142 628.794ZM518.032 624.312C518.032 622.222 518.786 620.702 520.263 619.618L519.081 618.006C517.038 619.503 516.032 621.65 516.032 624.312H518.032ZM520.263 619.618C521.8 618.492 523.931 617.876 526.756 617.876V615.876C523.655 615.876 521.064 616.551 519.081 618.006L520.263 619.618ZM526.756 617.876C529.01 617.876 531.236 618.186 533.437 618.806L533.979 616.882C531.604 616.212 529.196 615.876 526.756 615.876V617.876ZM534.708 617.844V617.14H532.708V617.844H534.708ZM534.708 617.14C534.708 614.942 534.054 613.114 532.617 611.821L531.279 613.307C532.189 614.126 532.708 615.349 532.708 617.14H534.708ZM532.617 611.821C531.203 610.548 529.275 609.98 526.976 609.98V611.98C528.959 611.98 530.346 612.468 531.279 613.307L532.617 611.821ZM526.976 609.98C524.581 609.98 522.137 610.564 519.652 611.698L520.483 613.518C522.751 612.482 524.913 611.98 526.976 611.98V609.98ZM521.007 612.265L519.995 609.493L518.117 610.179L519.129 612.951L521.007 612.265ZM519.473 610.745C522.177 609.505 524.793 608.9 527.328 608.9V606.9C524.466 606.9 521.567 607.585 518.639 608.927L519.473 610.745ZM527.328 608.9C530.389 608.9 532.544 609.691 533.969 611.115L535.383 609.701C533.464 607.781 530.721 606.9 527.328 606.9V608.9ZM533.969 611.115C535.316 612.462 536.052 614.408 536.052 617.096H538.052C538.052 614.035 537.204 611.522 535.383 609.701L533.969 611.115ZM536.052 617.096V631H538.052V617.096H536.052ZM537.052 630H533.708V632H537.052V630ZM534.708 631V627.612H532.708V631H534.708ZM532.921 626.995C531.097 629.322 528.665 630.484 525.524 630.484V632.484C529.247 632.484 532.271 631.065 534.495 628.229L532.921 626.995ZM526.184 629.756C528.487 629.756 530.501 629.128 532.167 627.828L530.937 626.251C529.669 627.24 528.105 627.756 526.184 627.756V629.756ZM532.167 627.828C533.865 626.504 534.752 624.751 534.752 622.64H532.752C532.752 624.107 532.172 625.288 530.937 626.251L532.167 627.828ZM534.752 622.64V620.528H532.752V622.64H534.752ZM534.03 619.567C531.715 618.897 529.407 618.56 527.108 618.56V620.56C529.209 620.56 531.33 620.868 533.474 621.489L534.03 619.567ZM527.108 618.56C524.903 618.56 523.041 619.008 521.637 620.026L522.811 621.646C523.754 620.962 525.147 620.56 527.108 620.56V618.56ZM521.651 620.017C520.209 621.026 519.464 622.462 519.464 624.224H521.464C521.464 623.112 521.893 622.289 522.797 621.655L521.651 620.017ZM519.464 624.224C519.464 625.911 520.15 627.308 521.489 628.321L522.695 626.727C521.864 626.097 521.464 625.294 521.464 624.224H519.464ZM521.499 628.329C522.813 629.297 524.394 629.756 526.184 629.756V627.756C524.748 627.756 523.601 627.394 522.685 626.719L521.499 628.329ZM547.308 631H546.308V632H547.308V631ZM547.308 608.252V607.252H546.308V608.252H547.308ZM550.696 608.252H551.696V607.252H550.696V608.252ZM550.696 618.064H549.696V619.064H550.696V618.064ZM563.808 618.064V619.064H564.808V618.064H563.808ZM563.808 608.252V607.252H562.808V608.252H563.808ZM567.196 608.252H568.196V607.252H567.196V608.252ZM567.196 631V632H568.196V631H567.196ZM563.808 631H562.808V632H563.808V631ZM563.808 621.056H564.808V620.056H563.808V621.056ZM550.696 621.056V620.056H549.696V621.056H550.696ZM550.696 631V632H551.696V631H550.696ZM548.308 631V608.252H546.308V631H548.308ZM547.308 609.252H550.696V607.252H547.308V609.252ZM549.696 608.252V618.064H551.696V608.252H549.696ZM550.696 619.064H563.808V617.064H550.696V619.064ZM564.808 618.064V608.252H562.808V618.064H564.808ZM563.808 609.252H567.196V607.252H563.808V609.252ZM566.196 608.252V631H568.196V608.252H566.196ZM567.196 630H563.808V632H567.196V630ZM564.808 631V621.056H562.808V631H564.808ZM563.808 620.056H550.696V622.056H563.808V620.056ZM549.696 621.056V631H551.696V621.056H549.696ZM550.696 630H547.308V632H550.696V630ZM578.637 629.592L578.035 630.39L578.637 629.592ZM578.77 618.812L579.361 619.618L578.77 618.812ZM592.805 617.844L592.534 618.806L593.805 619.165V617.844H592.805ZM591.045 612.564L591.714 611.821L591.045 612.564ZM579.165 612.608L578.226 612.951L578.597 613.967L579.581 613.518L579.165 612.608ZM578.153 609.836L577.737 608.927L576.898 609.312L577.214 610.179L578.153 609.836ZM593.773 610.408L593.066 611.115L593.773 610.408ZM596.149 631V632H597.149V631H596.149ZM592.805 631H591.805V632H592.805V631ZM592.805 627.612H593.805V624.716L592.019 626.995L592.805 627.612ZM590.649 627.04L590.034 626.251L590.649 627.04ZM592.849 620.528H593.849V619.776L593.128 619.567L592.849 620.528ZM581.321 620.836L581.895 621.655L581.902 621.65L581.908 621.646L581.321 620.836ZM581.189 627.524L580.586 628.321L580.596 628.329L581.189 627.524ZM584.621 630.484C582.497 630.484 580.72 629.91 579.24 628.794L578.035 630.39C579.899 631.797 582.111 632.484 584.621 632.484V630.484ZM579.24 628.794C577.84 627.738 577.129 626.285 577.129 624.312H575.129C575.129 626.856 576.091 628.923 578.035 630.39L579.24 628.794ZM577.129 624.312C577.129 622.222 577.883 620.702 579.361 619.618L578.178 618.006C576.136 619.503 575.129 621.65 575.129 624.312H577.129ZM579.361 619.618C580.898 618.492 583.029 617.876 585.854 617.876V615.876C582.753 615.876 580.161 616.551 578.178 618.006L579.361 619.618ZM585.854 617.876C588.107 617.876 590.333 618.186 592.534 618.806L593.077 616.882C590.702 616.212 588.293 615.876 585.854 615.876V617.876ZM593.805 617.844V617.14H591.805V617.844H593.805ZM593.805 617.14C593.805 614.942 593.151 613.114 591.714 611.821L590.377 613.307C591.286 614.126 591.805 615.349 591.805 617.14H593.805ZM591.714 611.821C590.301 610.548 588.373 609.98 586.073 609.98V611.98C588.057 611.98 589.444 612.468 590.377 613.307L591.714 611.821ZM586.073 609.98C583.678 609.98 581.234 610.564 578.75 611.698L579.581 613.518C581.849 612.482 584.01 611.98 586.073 611.98V609.98ZM580.105 612.265L579.093 609.493L577.214 610.179L578.226 612.951L580.105 612.265ZM578.57 610.745C581.275 609.505 583.89 608.9 586.425 608.9V606.9C583.563 606.9 580.664 607.585 577.737 608.927L578.57 610.745ZM586.425 608.9C589.486 608.9 591.642 609.691 593.066 611.115L594.481 609.701C592.561 607.781 589.818 606.9 586.425 606.9V608.9ZM593.066 611.115C594.414 612.462 595.149 614.408 595.149 617.096H597.149C597.149 614.035 596.301 611.522 594.481 609.701L593.066 611.115ZM595.149 617.096V631H597.149V617.096H595.149ZM596.149 630H592.805V632H596.149V630ZM593.805 631V627.612H591.805V631H593.805ZM592.019 626.995C590.194 629.322 587.763 630.484 584.621 630.484V632.484C588.344 632.484 591.369 631.065 593.592 628.229L592.019 626.995ZM585.281 629.756C587.585 629.756 589.599 629.128 591.265 627.828L590.034 626.251C588.767 627.24 587.202 627.756 585.281 627.756V629.756ZM591.265 627.828C592.963 626.504 593.849 624.751 593.849 622.64H591.849C591.849 624.107 591.269 625.288 590.034 626.251L591.265 627.828ZM593.849 622.64V620.528H591.849V622.64H593.849ZM593.128 619.567C590.813 618.897 588.505 618.56 586.205 618.56V620.56C588.306 620.56 590.428 620.868 592.571 621.489L593.128 619.567ZM586.205 618.56C584.001 618.56 582.139 619.008 580.735 620.026L581.908 621.646C582.851 620.962 584.245 620.56 586.205 620.56V618.56ZM580.748 620.017C579.306 621.026 578.561 622.462 578.561 624.224H580.561C580.561 623.112 580.99 622.289 581.895 621.655L580.748 620.017ZM578.561 624.224C578.561 625.911 579.247 627.308 580.586 628.321L581.793 626.727C580.961 626.097 580.561 625.294 580.561 624.224H578.561ZM580.596 628.329C581.91 629.297 583.491 629.756 585.281 629.756V627.756C583.845 627.756 582.698 627.394 581.783 626.719L580.596 628.329ZM602.578 631L601.587 630.865L601.466 631.753L602.335 631.97L602.578 631ZM602.974 628.096L603.265 627.139L602.142 626.797L601.983 627.961L602.974 628.096ZM606.186 628.184L606.522 629.126L606.551 629.115L606.58 629.103L606.186 628.184ZM607.506 626.908L606.69 626.33L606.685 626.337L607.506 626.908ZM608.65 623.96L607.671 623.755L608.65 623.96ZM609.31 618.592L608.314 618.504L608.313 618.516L609.31 618.592ZM609.618 608.252V607.252H608.618V608.252H609.618ZM625.722 608.252H626.722V607.252H625.722V608.252ZM625.722 631V632H626.722V631H625.722ZM622.334 631H621.334V632H622.334V631ZM622.334 611.244H623.334V610.244H622.334V611.244ZM612.83 611.244V610.244H611.83V611.244H612.83ZM612.434 620.616L611.44 620.508L612.434 620.616ZM611.422 626.336L610.464 626.051L610.461 626.06L610.458 626.069L611.422 626.336ZM609.794 629.548L609.059 628.87L609.794 629.548ZM607.726 631L607.435 630.043L607.409 630.051L607.384 630.06L607.726 631ZM605.306 630.352C604.515 630.352 603.688 630.247 602.82 630.03L602.335 631.97C603.346 632.223 604.337 632.352 605.306 632.352V630.352ZM603.569 631.135L603.965 628.231L601.983 627.961L601.587 630.865L603.569 631.135ZM602.683 629.053C603.395 629.269 604.047 629.404 604.602 629.404V627.404C604.336 627.404 603.903 627.333 603.265 627.139L602.683 629.053ZM604.602 629.404C605.312 629.404 605.965 629.325 606.522 629.126L605.85 627.242C605.585 627.337 605.182 627.404 604.602 627.404V629.404ZM606.58 629.103C607.254 628.814 607.827 628.197 608.327 627.479L606.685 626.337C606.246 626.968 605.939 627.202 605.792 627.265L606.58 629.103ZM608.322 627.486C608.929 626.629 609.349 625.5 609.629 624.165L607.671 623.755C607.423 624.942 607.08 625.779 606.69 626.33L608.322 627.486ZM609.629 624.165C609.906 622.84 610.13 621 610.307 618.668L608.313 618.516C608.138 620.819 607.922 622.557 607.671 623.755L609.629 624.165ZM610.306 618.68C610.515 616.324 610.618 613.477 610.618 610.144H608.618C608.618 613.44 608.516 616.225 608.314 618.504L610.306 618.68ZM610.618 610.144V608.252H608.618V610.144H610.618ZM609.618 609.252H625.722V607.252H609.618V609.252ZM624.722 608.252V631H626.722V608.252H624.722ZM625.722 630H622.334V632H625.722V630ZM623.334 631V611.244H621.334V631H623.334ZM622.334 610.244H612.83V612.244H622.334V610.244ZM611.83 611.244V611.772H613.83V611.244H611.83ZM611.83 611.772C611.83 615.211 611.699 618.121 611.44 620.508L613.428 620.724C613.697 618.242 613.83 615.256 613.83 611.772H611.83ZM611.44 620.508C611.178 622.918 610.849 624.756 610.464 626.051L612.38 626.621C612.816 625.158 613.161 623.183 613.428 620.724L611.44 620.508ZM610.458 626.069C610.104 627.35 609.622 628.26 609.059 628.87L610.529 630.226C611.374 629.311 611.977 628.08 612.386 626.603L610.458 626.069ZM609.059 628.87C608.423 629.559 607.878 629.909 607.435 630.043L608.017 631.957C608.924 631.681 609.757 631.062 610.529 630.226L609.059 628.87ZM607.384 630.06C606.883 630.242 606.201 630.352 605.306 630.352V632.352C606.347 632.352 607.278 632.227 608.068 631.94L607.384 630.06ZM637.176 629.592L636.574 630.39L637.176 629.592ZM637.308 618.812L637.9 619.618L637.308 618.812ZM651.344 617.844L651.073 618.806L652.344 619.165V617.844H651.344ZM649.584 612.564L650.253 611.821L649.584 612.564ZM637.704 612.608L636.765 612.951L637.136 613.967L638.12 613.518L637.704 612.608ZM636.692 609.836L636.276 608.927L635.436 609.312L635.753 610.179L636.692 609.836ZM652.312 610.408L651.605 611.115L652.312 610.408ZM654.688 631V632H655.688V631H654.688ZM651.344 631H650.344V632H651.344V631ZM651.344 627.612H652.344V624.716L650.557 626.995L651.344 627.612ZM649.188 627.04L648.573 626.251L649.188 627.04ZM651.388 620.528H652.388V619.776L651.666 619.567L651.388 620.528ZM639.86 620.836L640.434 621.655L640.441 621.65L640.447 621.646L639.86 620.836ZM639.728 627.524L639.125 628.321L639.135 628.329L639.728 627.524ZM643.16 630.484C641.036 630.484 639.259 629.91 637.779 628.794L636.574 630.39C638.438 631.797 640.65 632.484 643.16 632.484V630.484ZM637.779 628.794C636.379 627.738 635.668 626.285 635.668 624.312H633.668C633.668 626.856 634.63 628.923 636.574 630.39L637.779 628.794ZM635.668 624.312C635.668 622.222 636.422 620.702 637.9 619.618L636.717 618.006C634.675 619.503 633.668 621.65 633.668 624.312H635.668ZM637.9 619.618C639.436 618.492 641.568 617.876 644.392 617.876V615.876C641.292 615.876 638.7 616.551 636.717 618.006L637.9 619.618ZM644.392 617.876C646.646 617.876 648.872 618.186 651.073 618.806L651.616 616.882C649.241 616.212 646.832 615.876 644.392 615.876V617.876ZM652.344 617.844V617.14H650.344V617.844H652.344ZM652.344 617.14C652.344 614.942 651.69 613.114 650.253 611.821L648.915 613.307C649.825 614.126 650.344 615.349 650.344 617.14H652.344ZM650.253 611.821C648.84 610.548 646.912 609.98 644.612 609.98V611.98C646.596 611.98 647.983 612.468 648.915 613.307L650.253 611.821ZM644.612 609.98C642.217 609.98 639.773 610.564 637.289 611.698L638.12 613.518C640.388 612.482 642.549 611.98 644.612 611.98V609.98ZM638.644 612.265L637.632 609.493L635.753 610.179L636.765 612.951L638.644 612.265ZM637.109 610.745C639.814 609.505 642.429 608.9 644.964 608.9V606.9C642.102 606.9 639.203 607.585 636.276 608.927L637.109 610.745ZM644.964 608.9C648.025 608.9 650.181 609.691 651.605 611.115L653.02 609.701C651.1 607.781 648.357 606.9 644.964 606.9V608.9ZM651.605 611.115C652.953 612.462 653.688 614.408 653.688 617.096H655.688C655.688 614.035 654.84 611.522 653.02 609.701L651.605 611.115ZM653.688 617.096V631H655.688V617.096H653.688ZM654.688 630H651.344V632H654.688V630ZM652.344 631V627.612H650.344V631H652.344ZM650.557 626.995C648.733 629.322 646.302 630.484 643.16 630.484V632.484C646.883 632.484 649.908 631.065 652.131 628.229L650.557 626.995ZM643.82 629.756C646.124 629.756 648.138 629.128 649.803 627.828L648.573 626.251C647.306 627.24 645.741 627.756 643.82 627.756V629.756ZM649.803 627.828C651.502 626.504 652.388 624.751 652.388 622.64H650.388C650.388 624.107 649.808 625.288 648.573 626.251L649.803 627.828ZM652.388 622.64V620.528H650.388V622.64H652.388ZM651.666 619.567C649.352 618.897 647.044 618.56 644.744 618.56V620.56C646.845 620.56 648.966 620.868 651.11 621.489L651.666 619.567ZM644.744 618.56C642.54 618.56 640.677 619.008 639.273 620.026L640.447 621.646C641.39 620.962 642.784 620.56 644.744 620.56V618.56ZM639.287 620.017C637.845 621.026 637.1 622.462 637.1 624.224H639.1C639.1 623.112 639.529 622.289 640.434 621.655L639.287 620.017ZM637.1 624.224C637.1 625.911 637.786 627.308 639.125 628.321L640.332 626.727C639.5 626.097 639.1 625.294 639.1 624.224H637.1ZM639.135 628.329C640.449 629.297 642.03 629.756 643.82 629.756V627.756C642.384 627.756 641.237 627.394 640.322 626.719L639.135 628.329Z" fill="black"/>
</g>
<g filter="url(#filter2_d_13_3)">
<rect x="1075" y="503" width="476" height="195" fill="white"/>
</g>
<g opacity="0.5" filter="url(#filter3_d_13_3)">
<path d="M1190.94 601L1200.57 588.636C1198.02 588.167 1195.98 587.155 1194.46 585.6C1192.93 584.016 1192.17 581.977 1192.17 579.484C1192.17 576.873 1192.95 574.82 1194.5 573.324C1196.58 571.241 1199.58 570.2 1203.48 570.2H1216.63V601H1213.16V589.208H1204.31L1195.16 601H1190.94ZM1203.7 586.26H1213.16V573.324H1203.7C1201.18 573.324 1199.2 573.911 1197.76 575.084C1196.35 576.228 1195.65 577.783 1195.65 579.748C1195.65 581.713 1196.39 583.297 1197.89 584.5C1199.39 585.673 1201.32 586.26 1203.7 586.26ZM1251.32 601.528C1247.83 601.528 1244.7 600.399 1241.91 598.14L1243.62 595.632C1245.94 597.597 1248.48 598.58 1251.24 598.58C1252.79 598.58 1254.11 598.228 1255.2 597.524C1256.31 596.791 1256.87 595.793 1256.87 594.532C1256.87 593.359 1256.37 592.449 1255.37 591.804C1254.38 591.129 1252.97 590.792 1251.15 590.792H1248.11V588.02H1251.19C1252.69 588.02 1253.91 587.668 1254.84 586.964C1255.78 586.231 1256.25 585.277 1256.25 584.104C1256.25 583.077 1255.78 582.256 1254.84 581.64C1253.94 581.024 1252.76 580.716 1251.32 580.716C1248.63 580.716 1246.32 581.479 1244.42 583.004L1242.74 580.628C1245.21 578.721 1248.14 577.768 1251.54 577.768C1254.07 577.768 1256.06 578.34 1257.53 579.484C1259.02 580.599 1259.77 582.051 1259.77 583.84C1259.77 586.333 1258.56 588.079 1256.12 589.076C1258.94 590.073 1260.34 591.936 1260.34 594.664C1260.34 596.571 1259.52 598.199 1257.88 599.548C1256.24 600.868 1254.05 601.528 1251.32 601.528ZM1269.7 608.04V578.252H1273.09V582.828C1275.38 579.455 1278.28 577.768 1281.8 577.768C1284.71 577.768 1287.25 578.853 1289.42 581.024C1291.59 583.165 1292.67 586.04 1292.67 589.648C1292.67 593.197 1291.59 596.057 1289.42 598.228C1287.25 600.399 1284.71 601.484 1281.8 601.484C1278.23 601.484 1275.32 599.871 1273.09 596.644V608.04H1269.7ZM1281.19 598.448C1283.48 598.448 1285.38 597.656 1286.91 596.072C1288.43 594.459 1289.2 592.303 1289.2 589.604C1289.2 586.993 1288.42 584.881 1286.86 583.268C1285.31 581.625 1283.42 580.804 1281.19 580.804C1278.99 580.804 1277.07 581.64 1275.42 583.312C1273.78 584.984 1272.96 587.096 1272.96 589.648C1272.96 592.2 1273.78 594.312 1275.42 595.984C1277.07 597.627 1278.99 598.448 1281.19 598.448ZM1302 601V578.252H1305.39V596.248L1318.9 578.252H1322.2V601H1318.81V583.004L1305.26 601H1302ZM1338.34 601V581.244H1330.2V578.252H1349.91V581.244H1341.77V601H1338.34ZM1367.86 601.528C1364.67 601.528 1361.97 600.428 1359.77 598.228C1357.6 595.999 1356.51 593.139 1356.51 589.648C1356.51 586.333 1357.55 583.532 1359.64 581.244C1361.72 578.927 1364.32 577.768 1367.42 577.768C1370.68 577.768 1373.26 578.912 1375.17 581.2C1377.08 583.488 1378.03 586.363 1378.03 589.824C1378.03 590.264 1378.01 590.66 1377.98 591.012H1359.94C1360.18 593.329 1361.04 595.177 1362.54 596.556C1364.07 597.905 1365.87 598.58 1367.95 598.58C1370.68 598.58 1373.07 597.509 1375.12 595.368L1377.24 597.26C1374.68 600.105 1371.56 601.528 1367.86 601.528ZM1359.94 588.284H1374.6C1374.39 586.084 1373.66 584.265 1372.4 582.828C1371.16 581.361 1369.48 580.628 1367.34 580.628C1365.4 580.628 1363.74 581.347 1362.36 582.784C1360.99 584.221 1360.18 586.055 1359.94 588.284ZM1385.94 601.352C1385.06 601.352 1384.15 601.235 1383.21 601L1383.61 598.096C1384.28 598.301 1384.82 598.404 1385.24 598.404C1385.88 598.404 1386.41 598.331 1386.82 598.184C1387.23 598.008 1387.67 597.583 1388.14 596.908C1388.64 596.204 1389.02 595.221 1389.28 593.96C1389.55 592.699 1389.77 590.909 1389.94 588.592C1390.15 586.275 1390.25 583.459 1390.25 580.144V578.252H1406.36V601H1402.97V581.244H1393.46V581.772C1393.46 585.233 1393.33 588.181 1393.07 590.616C1392.8 593.051 1392.47 594.957 1392.06 596.336C1391.67 597.715 1391.13 598.785 1390.43 599.548C1389.72 600.311 1389.03 600.795 1388.36 601C1387.71 601.235 1386.91 601.352 1385.94 601.352ZM1417.02 601V578.252H1420.41V586.788H1426.48C1429.12 586.788 1431.27 587.36 1432.95 588.504C1434.62 589.619 1435.45 591.32 1435.45 593.608C1435.45 595.867 1434.68 597.671 1433.12 599.02C1431.57 600.34 1429.48 601 1426.87 601H1417.02ZM1420.41 598.008H1426.57C1428.3 598.008 1429.63 597.641 1430.57 596.908C1431.54 596.175 1432.02 595.104 1432.02 593.696C1432.02 592.405 1431.52 591.423 1430.53 590.748C1429.56 590.044 1428.19 589.692 1426.43 589.692H1420.41V598.008Z" fill="black"/>
<path d="M1190.94 601L1190.15 600.385L1188.89 602H1190.94V601ZM1200.57 588.636L1201.36 589.251L1202.38 587.951L1200.76 587.652L1200.57 588.636ZM1194.46 585.6L1193.74 586.294L1193.74 586.3L1194.46 585.6ZM1194.5 573.324L1195.2 574.045L1195.2 574.038L1195.21 574.031L1194.5 573.324ZM1216.63 570.2H1217.63V569.2H1216.63V570.2ZM1216.63 601V602H1217.63V601H1216.63ZM1213.16 601H1212.16V602H1213.16V601ZM1213.16 589.208H1214.16V588.208H1213.16V589.208ZM1204.31 589.208V588.208H1203.82L1203.52 588.595L1204.31 589.208ZM1195.16 601V602H1195.65L1195.95 601.613L1195.16 601ZM1213.16 586.26V587.26H1214.16V586.26H1213.16ZM1213.16 573.324H1214.16V572.324H1213.16V573.324ZM1197.76 575.084L1198.39 575.86L1198.39 575.859L1197.76 575.084ZM1197.89 584.5L1197.26 585.279L1197.27 585.287L1197.89 584.5ZM1191.73 601.615L1201.36 589.251L1199.79 588.021L1190.15 600.385L1191.73 601.615ZM1200.76 587.652C1198.37 587.213 1196.53 586.281 1195.17 584.9L1193.74 586.3C1195.44 588.028 1197.68 589.12 1200.39 589.62L1200.76 587.652ZM1195.18 584.906C1193.86 583.534 1193.17 581.756 1193.17 579.484H1191.17C1191.17 582.199 1192.01 584.498 1193.74 586.294L1195.18 584.906ZM1193.17 579.484C1193.17 577.084 1193.88 575.313 1195.2 574.045L1193.81 572.603C1192.02 574.327 1191.17 576.663 1191.17 579.484H1193.17ZM1195.21 574.031C1197.05 572.191 1199.75 571.2 1203.48 571.2V569.2C1199.4 569.2 1196.12 570.292 1193.8 572.617L1195.21 574.031ZM1203.48 571.2H1216.63V569.2H1203.48V571.2ZM1215.63 570.2V601H1217.63V570.2H1215.63ZM1216.63 600H1213.16V602H1216.63V600ZM1214.16 601V589.208H1212.16V601H1214.16ZM1213.16 588.208H1204.31V590.208H1213.16V588.208ZM1203.52 588.595L1194.37 600.387L1195.95 601.613L1205.1 589.821L1203.52 588.595ZM1195.16 600H1190.94V602H1195.16V600ZM1203.7 587.26H1213.16V585.26H1203.7V587.26ZM1214.16 586.26V573.324H1212.16V586.26H1214.16ZM1213.16 572.324H1203.7V574.324H1213.16V572.324ZM1203.7 572.324C1201.03 572.324 1198.8 572.945 1197.13 574.309L1198.39 575.859C1199.59 574.876 1201.32 574.324 1203.7 574.324V572.324ZM1197.13 574.308C1195.46 575.659 1194.65 577.51 1194.65 579.748H1196.65C1196.65 578.055 1197.24 576.797 1198.39 575.86L1197.13 574.308ZM1194.65 579.748C1194.65 582.008 1195.53 583.882 1197.26 585.279L1198.52 583.721C1197.26 582.713 1196.65 581.419 1196.65 579.748H1194.65ZM1197.27 585.287C1198.99 586.63 1201.16 587.26 1203.7 587.26V585.26C1201.49 585.26 1199.79 584.717 1198.51 583.713L1197.27 585.287ZM1241.91 598.14L1241.08 597.575L1240.56 598.336L1241.28 598.917L1241.91 598.14ZM1243.62 595.632L1244.27 594.869L1243.43 594.152L1242.8 595.067L1243.62 595.632ZM1255.2 597.524L1255.74 598.363L1255.75 598.359L1255.2 597.524ZM1255.37 591.804L1254.81 592.632L1254.82 592.638L1254.83 592.644L1255.37 591.804ZM1248.11 590.792H1247.11V591.792H1248.11V590.792ZM1248.11 588.02V587.02H1247.11V588.02H1248.11ZM1254.84 586.964L1255.44 587.764L1255.45 587.758L1255.46 587.752L1254.84 586.964ZM1254.84 581.64L1254.28 582.468L1254.29 582.472L1254.3 582.476L1254.84 581.64ZM1244.42 583.004L1243.6 583.579L1244.21 584.449L1245.04 583.785L1244.42 583.004ZM1242.74 580.628L1242.13 579.837L1241.38 580.422L1241.93 581.203L1242.74 580.628ZM1257.53 579.484L1256.91 580.273L1256.92 580.279L1256.93 580.286L1257.53 579.484ZM1256.12 589.076L1255.74 588.151L1253.32 589.144L1255.79 590.019L1256.12 589.076ZM1257.88 599.548L1258.51 600.328L1258.52 600.321L1257.88 599.548ZM1251.32 600.528C1248.07 600.528 1245.15 599.482 1242.54 597.363L1241.28 598.917C1244.24 601.316 1247.6 602.528 1251.32 602.528V600.528ZM1242.73 598.705L1244.45 596.197L1242.8 595.067L1241.08 597.575L1242.73 598.705ZM1242.98 596.395C1245.46 598.496 1248.22 599.58 1251.24 599.58V597.58C1248.74 597.58 1246.43 596.698 1244.27 594.869L1242.98 596.395ZM1251.24 599.58C1252.94 599.58 1254.46 599.192 1255.74 598.363L1254.65 596.685C1253.76 597.264 1252.64 597.58 1251.24 597.58V599.58ZM1255.75 598.359C1257.12 597.454 1257.87 596.152 1257.87 594.532H1255.87C1255.87 595.434 1255.5 596.127 1254.65 596.689L1255.75 598.359ZM1257.87 594.532C1257.87 593.014 1257.19 591.791 1255.92 590.964L1254.83 592.644C1255.55 593.107 1255.87 593.703 1255.87 594.532H1257.87ZM1255.93 590.976C1254.71 590.145 1253.07 589.792 1251.15 589.792V591.792C1252.86 591.792 1254.04 592.113 1254.81 592.632L1255.93 590.976ZM1251.15 589.792H1248.11V591.792H1251.15V589.792ZM1249.11 590.792V588.02H1247.11V590.792H1249.11ZM1248.11 589.02H1251.19V587.02H1248.11V589.02ZM1251.19 589.02C1252.84 589.02 1254.29 588.63 1255.44 587.764L1254.24 586.164C1253.52 586.706 1252.53 587.02 1251.19 587.02V589.02ZM1255.46 587.752C1256.64 586.833 1257.25 585.591 1257.25 584.104H1255.25C1255.25 584.964 1254.93 585.629 1254.23 586.176L1255.46 587.752ZM1257.25 584.104C1257.25 582.705 1256.58 581.584 1255.39 580.804L1254.3 582.476C1254.98 582.928 1255.25 583.45 1255.25 584.104H1257.25ZM1255.41 580.812C1254.29 580.054 1252.9 579.716 1251.32 579.716V581.716C1252.62 581.716 1253.58 581.994 1254.28 582.468L1255.41 580.812ZM1251.32 579.716C1248.42 579.716 1245.89 580.541 1243.79 582.223L1245.04 583.785C1246.75 582.416 1248.83 581.716 1251.32 581.716V579.716ZM1245.23 582.429L1243.56 580.053L1241.93 581.203L1243.6 583.579L1245.23 582.429ZM1243.36 581.419C1245.63 579.66 1248.34 578.768 1251.54 578.768V576.768C1247.94 576.768 1244.79 577.782 1242.13 579.837L1243.36 581.419ZM1251.54 578.768C1253.92 578.768 1255.68 579.307 1256.91 580.273L1258.14 578.695C1256.45 577.373 1254.21 576.768 1251.54 576.768V578.768ZM1256.93 580.286C1258.19 581.221 1258.77 582.382 1258.77 583.84H1260.77C1260.77 581.719 1259.86 579.976 1258.13 578.682L1256.93 580.286ZM1258.77 583.84C1258.77 584.918 1258.51 585.769 1258.04 586.447C1257.56 587.128 1256.82 587.708 1255.74 588.151L1256.5 590.001C1257.85 589.447 1258.94 588.655 1259.68 587.591C1260.42 586.523 1260.77 585.255 1260.77 583.84H1258.77ZM1255.79 590.019C1257.06 590.47 1257.93 591.087 1258.49 591.824C1259.04 592.554 1259.34 593.48 1259.34 594.664H1261.34C1261.34 593.12 1260.94 591.751 1260.09 590.618C1259.24 589.492 1258 588.679 1256.45 588.133L1255.79 590.019ZM1259.34 594.664C1259.34 596.235 1258.69 597.591 1257.25 598.775L1258.52 600.321C1260.36 598.806 1261.34 596.907 1261.34 594.664H1259.34ZM1257.25 598.768C1255.84 599.908 1253.89 600.528 1251.32 600.528V602.528C1254.21 602.528 1256.64 601.828 1258.51 600.328L1257.25 598.768ZM1269.7 608.04H1268.7V609.04H1269.7V608.04ZM1269.7 578.252V577.252H1268.7V578.252H1269.7ZM1273.09 578.252H1274.09V577.252H1273.09V578.252ZM1273.09 582.828H1272.09V586.084L1273.92 583.389L1273.09 582.828ZM1289.42 581.024L1288.71 581.731L1288.71 581.736L1289.42 581.024ZM1289.42 598.228L1290.12 598.935L1289.42 598.228ZM1273.09 596.644L1273.91 596.076L1272.09 593.437V596.644H1273.09ZM1273.09 608.04V609.04H1274.09V608.04H1273.09ZM1286.91 596.072L1287.63 596.766L1287.63 596.759L1286.91 596.072ZM1286.86 583.268L1286.14 583.955L1286.14 583.962L1286.86 583.268ZM1275.42 583.312L1276.14 584.013L1275.42 583.312ZM1275.42 595.984L1274.71 596.685L1274.72 596.691L1275.42 595.984ZM1270.7 608.04V578.252H1268.7V608.04H1270.7ZM1269.7 579.252H1273.09V577.252H1269.7V579.252ZM1272.09 578.252V582.828H1274.09V578.252H1272.09ZM1273.92 583.389C1276.06 580.24 1278.67 578.768 1281.8 578.768V576.768C1277.9 576.768 1274.7 578.669 1272.26 582.267L1273.92 583.389ZM1281.8 578.768C1284.43 578.768 1286.71 579.736 1288.71 581.731L1290.12 580.317C1287.78 577.971 1284.99 576.768 1281.8 576.768V578.768ZM1288.71 581.736C1290.66 583.655 1291.67 586.255 1291.67 589.648H1293.67C1293.67 585.825 1292.51 582.675 1290.12 580.312L1288.71 581.736ZM1291.67 589.648C1291.67 592.977 1290.66 595.567 1288.71 597.521L1290.12 598.935C1292.51 596.547 1293.67 593.418 1293.67 589.648H1291.67ZM1288.71 597.521C1286.71 599.516 1284.43 600.484 1281.8 600.484V602.484C1284.99 602.484 1287.78 601.281 1290.12 598.935L1288.71 597.521ZM1281.8 600.484C1278.59 600.484 1275.98 599.062 1273.91 596.076L1272.27 597.212C1274.66 600.679 1277.86 602.484 1281.8 602.484V600.484ZM1272.09 596.644V608.04H1274.09V596.644H1272.09ZM1273.09 607.04H1269.7V609.04H1273.09V607.04ZM1281.19 599.448C1283.74 599.448 1285.91 598.554 1287.63 596.766L1286.19 595.378C1284.86 596.758 1283.22 597.448 1281.19 597.448V599.448ZM1287.63 596.759C1289.37 594.922 1290.2 592.5 1290.2 589.604H1288.2C1288.2 592.105 1287.49 593.996 1286.18 595.385L1287.63 596.759ZM1290.2 589.604C1290.2 586.78 1289.35 584.404 1287.58 582.574L1286.14 583.962C1287.49 585.358 1288.2 587.206 1288.2 589.604H1290.2ZM1287.59 582.581C1285.85 580.742 1283.7 579.804 1281.19 579.804V581.804C1283.14 581.804 1284.77 582.509 1286.14 583.955L1287.59 582.581ZM1281.19 579.804C1278.7 579.804 1276.53 580.762 1274.71 582.611L1276.14 584.013C1277.61 582.518 1279.28 581.804 1281.19 581.804V579.804ZM1274.71 582.611C1272.87 584.488 1271.96 586.859 1271.96 589.648H1273.96C1273.96 587.333 1274.7 585.48 1276.14 584.013L1274.71 582.611ZM1271.96 589.648C1271.96 592.437 1272.87 594.808 1274.71 596.685L1276.14 595.283C1274.7 593.816 1273.96 591.963 1273.96 589.648H1271.96ZM1274.72 596.691C1276.54 598.51 1278.71 599.448 1281.19 599.448V597.448C1279.27 597.448 1277.6 596.744 1276.13 595.277L1274.72 596.691ZM1302 601H1301V602H1302V601ZM1302 578.252V577.252H1301V578.252H1302ZM1305.39 578.252H1306.39V577.252H1305.39V578.252ZM1305.39 596.248H1304.39V599.246L1306.19 596.848L1305.39 596.248ZM1318.9 578.252V577.252H1318.4L1318.1 577.652L1318.9 578.252ZM1322.2 578.252H1323.2V577.252H1322.2V578.252ZM1322.2 601V602H1323.2V601H1322.2ZM1318.81 601H1317.81V602H1318.81V601ZM1318.81 583.004H1319.81V580.014L1318.01 582.402L1318.81 583.004ZM1305.26 601V602H1305.76L1306.06 601.602L1305.26 601ZM1303 601V578.252H1301V601H1303ZM1302 579.252H1305.39V577.252H1302V579.252ZM1304.39 578.252V596.248H1306.39V578.252H1304.39ZM1306.19 596.848L1319.7 578.852L1318.1 577.652L1304.59 595.648L1306.19 596.848ZM1318.9 579.252H1322.2V577.252H1318.9V579.252ZM1321.2 578.252V601H1323.2V578.252H1321.2ZM1322.2 600H1318.81V602H1322.2V600ZM1319.81 601V583.004H1317.81V601H1319.81ZM1318.01 582.402L1304.46 600.398L1306.06 601.602L1319.61 583.606L1318.01 582.402ZM1305.26 600H1302V602H1305.26V600ZM1338.34 601H1337.34V602H1338.34V601ZM1338.34 581.244H1339.34V580.244H1338.34V581.244ZM1330.2 581.244H1329.2V582.244H1330.2V581.244ZM1330.2 578.252V577.252H1329.2V578.252H1330.2ZM1349.91 578.252H1350.91V577.252H1349.91V578.252ZM1349.91 581.244V582.244H1350.91V581.244H1349.91ZM1341.77 581.244V580.244H1340.77V581.244H1341.77ZM1341.77 601V602H1342.77V601H1341.77ZM1339.34 601V581.244H1337.34V601H1339.34ZM1338.34 580.244H1330.2V582.244H1338.34V580.244ZM1331.2 581.244V578.252H1329.2V581.244H1331.2ZM1330.2 579.252H1349.91V577.252H1330.2V579.252ZM1348.91 578.252V581.244H1350.91V578.252H1348.91ZM1349.91 580.244H1341.77V582.244H1349.91V580.244ZM1340.77 581.244V601H1342.77V581.244H1340.77ZM1341.77 600H1338.34V602H1341.77V600ZM1359.77 598.228L1359.05 598.926L1359.06 598.935L1359.77 598.228ZM1359.64 581.244L1360.38 581.917L1360.38 581.912L1359.64 581.244ZM1375.17 581.2L1374.4 581.84L1375.17 581.2ZM1377.98 591.012V592.012H1378.9L1378.98 591.095L1377.98 591.012ZM1359.94 591.012V590.012H1358.84L1358.95 591.113L1359.94 591.012ZM1362.54 596.556L1361.86 597.291L1361.87 597.298L1361.88 597.305L1362.54 596.556ZM1375.12 595.368L1375.79 594.623L1375.07 593.978L1374.4 594.676L1375.12 595.368ZM1377.24 597.26L1377.98 597.928L1378.65 597.183L1377.9 596.515L1377.24 597.26ZM1359.94 588.284L1358.95 588.179L1358.83 589.284H1359.94V588.284ZM1374.6 588.284V589.284H1375.69L1375.59 588.191L1374.6 588.284ZM1372.4 582.828L1371.63 583.471L1371.64 583.479L1371.64 583.488L1372.4 582.828ZM1362.36 582.784L1361.64 582.092L1362.36 582.784ZM1367.86 600.528C1364.92 600.528 1362.48 599.528 1360.48 597.521L1359.06 598.935C1361.45 601.328 1364.41 602.528 1367.86 602.528V600.528ZM1360.49 597.53C1358.52 595.511 1357.51 592.913 1357.51 589.648H1355.51C1355.51 593.365 1356.68 596.486 1359.05 598.926L1360.49 597.53ZM1357.51 589.648C1357.51 586.563 1358.47 584.007 1360.38 581.917L1358.9 580.571C1356.63 583.057 1355.51 586.104 1355.51 589.648H1357.51ZM1360.38 581.912C1362.27 579.806 1364.6 578.768 1367.42 578.768V576.768C1364.03 576.768 1361.16 578.048 1358.89 580.576L1360.38 581.912ZM1367.42 578.768C1370.42 578.768 1372.7 579.803 1374.4 581.84L1375.94 580.56C1373.82 578.021 1370.95 576.768 1367.42 576.768V578.768ZM1374.4 581.84C1376.13 583.92 1377.03 586.557 1377.03 589.824H1379.03C1379.03 586.169 1378.02 583.056 1375.94 580.56L1374.4 581.84ZM1377.03 589.824C1377.03 590.243 1377.01 590.61 1376.99 590.929L1378.98 591.095C1379.01 590.71 1379.03 590.285 1379.03 589.824H1377.03ZM1377.98 590.012H1359.94V592.012H1377.98V590.012ZM1358.95 591.113C1359.21 593.636 1360.16 595.723 1361.86 597.291L1363.22 595.821C1361.93 594.632 1361.15 593.023 1360.94 590.911L1358.95 591.113ZM1361.88 597.305C1363.59 598.82 1365.63 599.58 1367.95 599.58V597.58C1366.11 597.58 1364.54 596.991 1363.2 595.807L1361.88 597.305ZM1367.95 599.58C1370.98 599.58 1373.62 598.379 1375.85 596.06L1374.4 594.676C1372.52 596.64 1370.38 597.58 1367.95 597.58V599.58ZM1374.46 596.113L1376.57 598.005L1377.9 596.515L1375.79 594.623L1374.46 596.113ZM1376.49 596.592C1374.12 599.234 1371.27 600.528 1367.86 600.528V602.528C1371.86 602.528 1375.25 600.976 1377.98 597.928L1376.49 596.592ZM1359.94 589.284H1374.6V587.284H1359.94V589.284ZM1375.59 588.191C1375.37 585.815 1374.57 583.788 1373.15 582.168L1371.64 583.488C1372.75 584.743 1373.41 586.353 1373.6 588.377L1375.59 588.191ZM1373.16 582.185C1371.72 580.464 1369.73 579.628 1367.34 579.628V581.628C1369.22 581.628 1370.61 582.259 1371.63 583.471L1373.16 582.185ZM1367.34 579.628C1365.12 579.628 1363.2 580.464 1361.64 582.092L1363.09 583.476C1364.28 582.229 1365.68 581.628 1367.34 581.628V579.628ZM1361.64 582.092C1360.09 583.709 1359.2 585.758 1358.95 588.179L1360.94 588.389C1361.15 586.351 1361.88 584.733 1363.09 583.476L1361.64 582.092ZM1383.21 601L1382.22 600.865L1382.1 601.753L1382.97 601.97L1383.21 601ZM1383.61 598.096L1383.9 597.139L1382.78 596.797L1382.62 597.961L1383.61 598.096ZM1386.82 598.184L1387.16 599.126L1387.19 599.115L1387.21 599.103L1386.82 598.184ZM1388.14 596.908L1387.32 596.33L1387.32 596.337L1388.14 596.908ZM1389.28 593.96L1388.3 593.755L1389.28 593.96ZM1389.94 588.592L1388.95 588.504L1388.95 588.516L1389.94 588.592ZM1390.25 578.252V577.252H1389.25V578.252H1390.25ZM1406.36 578.252H1407.36V577.252H1406.36V578.252ZM1406.36 601V602H1407.36V601H1406.36ZM1402.97 601H1401.97V602H1402.97V601ZM1402.97 581.244H1403.97V580.244H1402.97V581.244ZM1393.46 581.244V580.244H1392.46V581.244H1393.46ZM1393.07 590.616L1392.07 590.508L1393.07 590.616ZM1392.06 596.336L1391.1 596.051L1391.09 596.06L1391.09 596.069L1392.06 596.336ZM1390.43 599.548L1389.69 598.87L1390.43 599.548ZM1388.36 601L1388.07 600.043L1388.04 600.051L1388.02 600.06L1388.36 601ZM1385.94 600.352C1385.15 600.352 1384.32 600.247 1383.45 600.03L1382.97 601.97C1383.98 602.223 1384.97 602.352 1385.94 602.352V600.352ZM1384.2 601.135L1384.6 598.231L1382.62 597.961L1382.22 600.865L1384.2 601.135ZM1383.32 599.053C1384.03 599.269 1384.68 599.404 1385.24 599.404V597.404C1384.97 597.404 1384.54 597.333 1383.9 597.139L1383.32 599.053ZM1385.24 599.404C1385.95 599.404 1386.6 599.325 1387.16 599.126L1386.48 597.242C1386.22 597.337 1385.82 597.404 1385.24 597.404V599.404ZM1387.21 599.103C1387.89 598.814 1388.46 598.197 1388.96 597.479L1387.32 596.337C1386.88 596.968 1386.57 597.202 1386.43 597.265L1387.21 599.103ZM1388.96 597.486C1389.56 596.629 1389.98 595.5 1390.26 594.165L1388.3 593.755C1388.06 594.942 1387.71 595.779 1387.32 596.33L1388.96 597.486ZM1390.26 594.165C1390.54 592.84 1390.76 591 1390.94 588.668L1388.95 588.516C1388.77 590.819 1388.56 592.557 1388.3 593.755L1390.26 594.165ZM1390.94 588.68C1391.15 586.324 1391.25 583.477 1391.25 580.144H1389.25C1389.25 583.44 1389.15 586.225 1388.95 588.504L1390.94 588.68ZM1391.25 580.144V578.252H1389.25V580.144H1391.25ZM1390.25 579.252H1406.36V577.252H1390.25V579.252ZM1405.36 578.252V601H1407.36V578.252H1405.36ZM1406.36 600H1402.97V602H1406.36V600ZM1403.97 601V581.244H1401.97V601H1403.97ZM1402.97 580.244H1393.46V582.244H1402.97V580.244ZM1392.46 581.244V581.772H1394.46V581.244H1392.46ZM1392.46 581.772C1392.46 585.211 1392.33 588.121 1392.07 590.508L1394.06 590.724C1394.33 588.242 1394.46 585.256 1394.46 581.772H1392.46ZM1392.07 590.508C1391.81 592.918 1391.48 594.756 1391.1 596.051L1393.01 596.621C1393.45 595.158 1393.8 593.183 1394.06 590.724L1392.07 590.508ZM1391.09 596.069C1390.74 597.35 1390.26 598.26 1389.69 598.87L1391.16 600.226C1392.01 599.311 1392.61 598.08 1393.02 596.603L1391.09 596.069ZM1389.69 598.87C1389.06 599.559 1388.51 599.909 1388.07 600.043L1388.65 601.957C1389.56 601.681 1390.39 601.062 1391.16 600.226L1389.69 598.87ZM1388.02 600.06C1387.52 600.242 1386.84 600.352 1385.94 600.352V602.352C1386.98 602.352 1387.91 602.227 1388.7 601.94L1388.02 600.06ZM1417.02 601H1416.02V602H1417.02V601ZM1417.02 578.252V577.252H1416.02V578.252H1417.02ZM1420.41 578.252H1421.41V577.252H1420.41V578.252ZM1420.41 586.788H1419.41V587.788H1420.41V586.788ZM1432.95 588.504L1432.38 589.329L1432.39 589.336L1432.95 588.504ZM1433.12 599.02L1433.77 599.782L1433.78 599.775L1433.12 599.02ZM1420.41 598.008H1419.41V599.008H1420.41V598.008ZM1430.57 596.908L1429.97 596.111L1429.96 596.115L1429.95 596.12L1430.57 596.908ZM1430.53 590.748L1429.94 591.557L1429.95 591.567L1429.97 591.576L1430.53 590.748ZM1420.41 589.692V588.692H1419.41V589.692H1420.41ZM1418.02 601V578.252H1416.02V601H1418.02ZM1417.02 579.252H1420.41V577.252H1417.02V579.252ZM1419.41 578.252V586.788H1421.41V578.252H1419.41ZM1420.41 587.788H1426.48V585.788H1420.41V587.788ZM1426.48 587.788C1428.98 587.788 1430.92 588.329 1432.38 589.329L1433.51 587.679C1431.63 586.391 1429.26 585.788 1426.48 585.788V587.788ZM1432.39 589.336C1433.74 590.237 1434.45 591.6 1434.45 593.608H1436.45C1436.45 591.04 1435.49 589 1433.5 587.672L1432.39 589.336ZM1434.45 593.608C1434.45 595.609 1433.78 597.125 1432.47 598.265L1433.78 599.775C1435.57 598.216 1436.45 596.125 1436.45 593.608H1434.45ZM1432.47 598.258C1431.15 599.385 1429.32 600 1426.87 600V602C1429.65 602 1431.99 601.295 1433.77 599.782L1432.47 598.258ZM1426.87 600H1417.02V602H1426.87V600ZM1420.41 599.008H1426.57V597.008H1420.41V599.008ZM1426.57 599.008C1428.42 599.008 1430.01 598.617 1431.19 597.696L1429.95 596.12C1429.26 596.666 1428.17 597.008 1426.57 597.008V599.008ZM1431.17 597.705C1432.43 596.751 1433.02 595.36 1433.02 593.696H1431.02C1431.02 594.848 1430.64 595.598 1429.97 596.111L1431.17 597.705ZM1433.02 593.696C1433.02 592.102 1432.38 590.796 1431.09 589.92L1429.97 591.576C1430.67 592.05 1431.02 592.709 1431.02 593.696H1433.02ZM1431.11 589.939C1429.91 589.065 1428.31 588.692 1426.43 588.692V590.692C1428.08 590.692 1429.2 591.023 1429.94 591.557L1431.11 589.939ZM1426.43 588.692H1420.41V590.692H1426.43V588.692ZM1419.41 589.692V598.008H1421.41V589.692H1419.41Z" fill="black"/>
</g>
<g filter="url(#filter4_d_13_3)">
<rect x="5" y="104" width="1920" height="135" fill="white"/>
</g>
<rect x="5.5" y="0.5" width="1919" height="1079" stroke="black"/>
<defs>
<filter id="filter0_d_13_3" x="0.942444" y="0" width="1928" height="1088" filterUnits="userSpaceOnUse" color-interpolation-filters="sRGB">
<feFlood flood-opacity="0" result="BackgroundImageFix"/>
<feColorMatrix in="SourceAlpha" type="matrix" values="0 0 0 0 0 0 0 0 0 0 0 0 0 0 0 0 0 0 127 0" result="hardAlpha"/>
<feOffset dy="4"/>
<feGaussianBlur stdDeviation="2"/>
<feComposite in2="hardAlpha" operator="out"/>
<feColorMatrix type="matrix" values="0 0 0 0 0 0 0 0 0 0 0 0 0 0 0 0 0 0 0.25 0"/>
<feBlend mode="normal" in2="BackgroundImageFix" result="effect1_dropShadow_13_3"/>
<feBlend mode="normal" in="SourceGraphic" in2="effect1_dropShadow_13_3" result="shape"/>
</filter>
<filter id="filter1_d_13_3" x="331" y="503" width="484" height="203" filterUnits="userSpaceOnUse" color-interpolation-filters="sRGB">
<feFlood flood-opacity="0" result="BackgroundImageFix"/>
<feColorMatrix in="SourceAlpha" type="matrix" values="0 0 0 0 0 0 0 0 0 0 0 0 0 0 0 0 0 0 127 0" result="hardAlpha"/>
<feOffset dy="4"/>
<feGaussianBlur stdDeviation="2"/>
<feComposite in2="hardAlpha" operator="out"/>
<feColorMatrix type="matrix" values="0 0 0 0 0 0 0 0 0 0 0 0 0 0 0 0 0 0 0.25 0"/>
<feBlend mode="normal" in2="BackgroundImageFix" result="effect1_dropShadow_13_3"/>
<feBlend mode="normal" in="SourceGraphic" in2="effect1_dropShadow_13_3" result="shape"/>
</filter>
<filter id="filter2_d_13_3" x="1071" y="503" width="484" height="203" filterUnits="userSpaceOnUse" color-interpolation-filters="sRGB">
<feFlood flood-opacity="0" result="BackgroundImageFix"/>
<feColorMatrix in="SourceAlpha" type="matrix" values="0 0 0 0 0 0 0 0 0 0 0 0 0 0 0 0 0 0 127 0" result="hardAlpha"/>
<feOffset dy="4"/>
<feGaussianBlur stdDeviation="2"/>
<feComposite in2="hardAlpha" operator="out"/>
<feColorMatrix type="matrix" values="0 0 0 0 0 0 0 0 0 0 0 0 0 0 0 0 0 0 0.25 0"/>
<feBlend mode="normal" in2="BackgroundImageFix" result="effect1_dropShadow_13_3"/>
<feBlend mode="normal" in="SourceGraphic" in2="effect1_dropShadow_13_3" result="shape"/>
</filter>
<filter id="filter3_d_13_3" x="1186.94" y="570.2" width="252.516" height="45.84" filterUnits="userSpaceOnUse" color-interpolation-filters="sRGB">
<feFlood flood-opacity="0" result="BackgroundImageFix"/>
<feColorMatrix in="SourceAlpha" type="matrix" values="0 0 0 0 0 0 0 0 0 0 0 0 0 0 0 0 0 0 127 0" result="hardAlpha"/>
<feOffset dy="4"/>
<feGaussianBlur stdDeviation="2"/>
<feComposite in2="hardAlpha" operator="out"/>
<feColorMatrix type="matrix" values="0 0 0 0 0 0 0 0 0 0 0 0 0 0 0 0 0 0 0.25 0"/>
<feBlend mode="normal" in2="BackgroundImageFix" result="effect1_dropShadow_13_3"/>
<feBlend mode="normal" in="SourceGraphic" in2="effect1_dropShadow_13_3" result="shape"/>
</filter>
<filter id="filter4_d_13_3" x="1" y="104" width="1928" height="143" filterUnits="userSpaceOnUse" color-interpolation-filters="sRGB">
<feFlood flood-opacity="0" result="BackgroundImageFix"/>
<feColorMatrix in="SourceAlpha" type="matrix" values="0 0 0 0 0 0 0 0 0 0 0 0 0 0 0 0 0 0 127 0" result="hardAlpha"/>
<feOffset dy="4"/>
<feGaussianBlur stdDeviation="2"/>
<feComposite in2="hardAlpha" operator="out"/>
<feColorMatrix type="matrix" values="0 0 0 0 0 0 0 0 0 0 0 0 0 0 0 0 0 0 0.25 0"/>
<feBlend mode="normal" in2="BackgroundImageFix" result="effect1_dropShadow_13_3"/>
<feBlend mode="normal" in="SourceGraphic" in2="effect1_dropShadow_13_3" result="shape"/>
</filter>
</defs>
</svg>
