<svg width="646" height="1072" viewBox="0 0 646 1072" fill="none" xmlns="http://www.w3.org/2000/svg">
<ellipse cx="645.996" cy="535.956" rx="645.212" ry="535.834" fill="#F059AB"/>
<ellipse cx="645.996" cy="538.429" rx="297.79" ry="247.308" fill="#362C73"/>
<ellipse cx="645.996" cy="538.429" rx="248.158" ry="206.09" fill="#66E29F"/>
<path d="M1234.08 538.429C1234.08 806.212 972.148 1025.55 645.996 1025.55C319.844 1025.55 57.9163 806.212 57.9163 538.429C57.9163 270.646 319.844 51.3129 645.996 51.3129C972.148 51.3129 1234.08 270.646 1234.08 538.429Z" stroke="black" stroke-width="15"/>
<path d="M1134.81 538.429C1134.81 760.684 917.327 943.109 645.996 943.109C374.666 943.109 157.18 760.684 157.18 538.429C157.18 316.174 374.666 133.749 645.996 133.749C917.327 133.749 1134.81 316.174 1134.81 538.429Z" stroke="black" stroke-width="15"/>
<path d="M1035.55 538.429C1035.55 715.156 862.505 860.673 645.996 860.673C429.487 860.673 256.443 715.156 256.443 538.429C256.443 361.702 429.487 216.185 645.996 216.185C862.505 216.185 1035.55 361.702 1035.55 538.429Z" stroke="black" stroke-width="15"/>
</svg>
